G04 #@! TF.FileFunction,Legend,Top*
%FSLAX46Y46*%
G04 Gerber Fmt 4.6, Leading zero omitted, Abs format (unit mm)*
G04 Created by KiCad (PCBNEW 4.0.4+e1-6308~48~ubuntu14.04.1-stable) date Sun Nov 27 13:15:31 2016*
%MOMM*%
%LPD*%
G01*
G04 APERTURE LIST*
%ADD10C,0.100000*%
%ADD11C,0.150000*%
%ADD12C,0.300000*%
G04 APERTURE END LIST*
D10*
D11*
X151966667Y-87400000D02*
X151900001Y-87366667D01*
X151800001Y-87366667D01*
X151700001Y-87400000D01*
X151633334Y-87466667D01*
X151600001Y-87533333D01*
X151566667Y-87666667D01*
X151566667Y-87766667D01*
X151600001Y-87900000D01*
X151633334Y-87966667D01*
X151700001Y-88033333D01*
X151800001Y-88066667D01*
X151866667Y-88066667D01*
X151966667Y-88033333D01*
X152000001Y-88000000D01*
X152000001Y-87766667D01*
X151866667Y-87766667D01*
X152300001Y-88066667D02*
X152300001Y-87366667D01*
X152700001Y-88066667D01*
X152700001Y-87366667D01*
X153033334Y-88066667D02*
X153033334Y-87366667D01*
X153200000Y-87366667D01*
X153300000Y-87400000D01*
X153366667Y-87466667D01*
X153400000Y-87533333D01*
X153433334Y-87666667D01*
X153433334Y-87766667D01*
X153400000Y-87900000D01*
X153366667Y-87966667D01*
X153300000Y-88033333D01*
X153200000Y-88066667D01*
X153033334Y-88066667D01*
X148433333Y-88066667D02*
X148033333Y-88066667D01*
X148233333Y-88066667D02*
X148233333Y-87366667D01*
X148166667Y-87466667D01*
X148100000Y-87533333D01*
X148033333Y-87566667D01*
X148700000Y-87433333D02*
X148733334Y-87400000D01*
X148800000Y-87366667D01*
X148966667Y-87366667D01*
X149033334Y-87400000D01*
X149066667Y-87433333D01*
X149100000Y-87500000D01*
X149100000Y-87566667D01*
X149066667Y-87666667D01*
X148666667Y-88066667D01*
X149100000Y-88066667D01*
X149400001Y-87800000D02*
X149933334Y-87800000D01*
X149666667Y-88066667D02*
X149666667Y-87533333D01*
X144366667Y-87600000D02*
X144366667Y-88066667D01*
X144200000Y-87333333D02*
X144033333Y-87833333D01*
X144466667Y-87833333D01*
X144833334Y-87666667D02*
X144766667Y-87633333D01*
X144733334Y-87600000D01*
X144700000Y-87533333D01*
X144700000Y-87500000D01*
X144733334Y-87433333D01*
X144766667Y-87400000D01*
X144833334Y-87366667D01*
X144966667Y-87366667D01*
X145033334Y-87400000D01*
X145066667Y-87433333D01*
X145100000Y-87500000D01*
X145100000Y-87533333D01*
X145066667Y-87600000D01*
X145033334Y-87633333D01*
X144966667Y-87666667D01*
X144833334Y-87666667D01*
X144766667Y-87700000D01*
X144733334Y-87733333D01*
X144700000Y-87800000D01*
X144700000Y-87933333D01*
X144733334Y-88000000D01*
X144766667Y-88033333D01*
X144833334Y-88066667D01*
X144966667Y-88066667D01*
X145033334Y-88033333D01*
X145066667Y-88000000D01*
X145100000Y-87933333D01*
X145100000Y-87800000D01*
X145066667Y-87733333D01*
X145033334Y-87700000D01*
X144966667Y-87666667D01*
X145400001Y-87800000D02*
X145933334Y-87800000D01*
X145666667Y-88066667D02*
X145666667Y-87533333D01*
X129133335Y-92050000D02*
X129066669Y-92016667D01*
X128966669Y-92016667D01*
X128866669Y-92050000D01*
X128800002Y-92116667D01*
X128766669Y-92183333D01*
X128733335Y-92316667D01*
X128733335Y-92416667D01*
X128766669Y-92550000D01*
X128800002Y-92616667D01*
X128866669Y-92683333D01*
X128966669Y-92716667D01*
X129033335Y-92716667D01*
X129133335Y-92683333D01*
X129166669Y-92650000D01*
X129166669Y-92416667D01*
X129033335Y-92416667D01*
X129766669Y-92716667D02*
X129766669Y-92350000D01*
X129733335Y-92283333D01*
X129666669Y-92250000D01*
X129533335Y-92250000D01*
X129466669Y-92283333D01*
X129766669Y-92683333D02*
X129700002Y-92716667D01*
X129533335Y-92716667D01*
X129466669Y-92683333D01*
X129433335Y-92616667D01*
X129433335Y-92550000D01*
X129466669Y-92483333D01*
X129533335Y-92450000D01*
X129700002Y-92450000D01*
X129766669Y-92416667D01*
X130100002Y-92716667D02*
X130100002Y-92016667D01*
X130500002Y-92716667D01*
X130500002Y-92016667D01*
X131766668Y-92650000D02*
X131733334Y-92683333D01*
X131633334Y-92716667D01*
X131566668Y-92716667D01*
X131466668Y-92683333D01*
X131400001Y-92616667D01*
X131366668Y-92550000D01*
X131333334Y-92416667D01*
X131333334Y-92316667D01*
X131366668Y-92183333D01*
X131400001Y-92116667D01*
X131466668Y-92050000D01*
X131566668Y-92016667D01*
X131633334Y-92016667D01*
X131733334Y-92050000D01*
X131766668Y-92083333D01*
X132166668Y-92716667D02*
X132100001Y-92683333D01*
X132066668Y-92616667D01*
X132066668Y-92016667D01*
X132733335Y-92716667D02*
X132733335Y-92350000D01*
X132700001Y-92283333D01*
X132633335Y-92250000D01*
X132500001Y-92250000D01*
X132433335Y-92283333D01*
X132733335Y-92683333D02*
X132666668Y-92716667D01*
X132500001Y-92716667D01*
X132433335Y-92683333D01*
X132400001Y-92616667D01*
X132400001Y-92550000D01*
X132433335Y-92483333D01*
X132500001Y-92450000D01*
X132666668Y-92450000D01*
X132733335Y-92416667D01*
X133033334Y-92683333D02*
X133100001Y-92716667D01*
X133233334Y-92716667D01*
X133300001Y-92683333D01*
X133333334Y-92616667D01*
X133333334Y-92583333D01*
X133300001Y-92516667D01*
X133233334Y-92483333D01*
X133133334Y-92483333D01*
X133066668Y-92450000D01*
X133033334Y-92383333D01*
X133033334Y-92350000D01*
X133066668Y-92283333D01*
X133133334Y-92250000D01*
X133233334Y-92250000D01*
X133300001Y-92283333D01*
X133600001Y-92683333D02*
X133666668Y-92716667D01*
X133800001Y-92716667D01*
X133866668Y-92683333D01*
X133900001Y-92616667D01*
X133900001Y-92583333D01*
X133866668Y-92516667D01*
X133800001Y-92483333D01*
X133700001Y-92483333D01*
X133633335Y-92450000D01*
X133600001Y-92383333D01*
X133600001Y-92350000D01*
X133633335Y-92283333D01*
X133700001Y-92250000D01*
X133800001Y-92250000D01*
X133866668Y-92283333D01*
X134733335Y-92350000D02*
X134966668Y-92350000D01*
X135066668Y-92716667D02*
X134733335Y-92716667D01*
X134733335Y-92016667D01*
X135066668Y-92016667D01*
X135800001Y-92016667D02*
X136200001Y-92016667D01*
X136000001Y-92716667D02*
X136000001Y-92016667D01*
X136700000Y-92683333D02*
X136633334Y-92716667D01*
X136500000Y-92716667D01*
X136433334Y-92683333D01*
X136400000Y-92616667D01*
X136400000Y-92350000D01*
X136433334Y-92283333D01*
X136500000Y-92250000D01*
X136633334Y-92250000D01*
X136700000Y-92283333D01*
X136733334Y-92350000D01*
X136733334Y-92416667D01*
X136400000Y-92483333D01*
X137000000Y-92683333D02*
X137066667Y-92716667D01*
X137200000Y-92716667D01*
X137266667Y-92683333D01*
X137300000Y-92616667D01*
X137300000Y-92583333D01*
X137266667Y-92516667D01*
X137200000Y-92483333D01*
X137100000Y-92483333D01*
X137033334Y-92450000D01*
X137000000Y-92383333D01*
X137000000Y-92350000D01*
X137033334Y-92283333D01*
X137100000Y-92250000D01*
X137200000Y-92250000D01*
X137266667Y-92283333D01*
X137500001Y-92250000D02*
X137766667Y-92250000D01*
X137600001Y-92016667D02*
X137600001Y-92616667D01*
X137633334Y-92683333D01*
X137700001Y-92716667D01*
X137766667Y-92716667D01*
X138766667Y-92350000D02*
X138866667Y-92383333D01*
X138900000Y-92416667D01*
X138933334Y-92483333D01*
X138933334Y-92583333D01*
X138900000Y-92650000D01*
X138866667Y-92683333D01*
X138800000Y-92716667D01*
X138533334Y-92716667D01*
X138533334Y-92016667D01*
X138766667Y-92016667D01*
X138833334Y-92050000D01*
X138866667Y-92083333D01*
X138900000Y-92150000D01*
X138900000Y-92216667D01*
X138866667Y-92283333D01*
X138833334Y-92316667D01*
X138766667Y-92350000D01*
X138533334Y-92350000D01*
X139333334Y-92716667D02*
X139266667Y-92683333D01*
X139233334Y-92650000D01*
X139200000Y-92583333D01*
X139200000Y-92383333D01*
X139233334Y-92316667D01*
X139266667Y-92283333D01*
X139333334Y-92250000D01*
X139433334Y-92250000D01*
X139500000Y-92283333D01*
X139533334Y-92316667D01*
X139566667Y-92383333D01*
X139566667Y-92583333D01*
X139533334Y-92650000D01*
X139500000Y-92683333D01*
X139433334Y-92716667D01*
X139333334Y-92716667D01*
X140166667Y-92716667D02*
X140166667Y-92350000D01*
X140133333Y-92283333D01*
X140066667Y-92250000D01*
X139933333Y-92250000D01*
X139866667Y-92283333D01*
X140166667Y-92683333D02*
X140100000Y-92716667D01*
X139933333Y-92716667D01*
X139866667Y-92683333D01*
X139833333Y-92616667D01*
X139833333Y-92550000D01*
X139866667Y-92483333D01*
X139933333Y-92450000D01*
X140100000Y-92450000D01*
X140166667Y-92416667D01*
X140500000Y-92716667D02*
X140500000Y-92250000D01*
X140500000Y-92383333D02*
X140533333Y-92316667D01*
X140566666Y-92283333D01*
X140633333Y-92250000D01*
X140700000Y-92250000D01*
X141233333Y-92716667D02*
X141233333Y-92016667D01*
X141233333Y-92683333D02*
X141166666Y-92716667D01*
X141033333Y-92716667D01*
X140966666Y-92683333D01*
X140933333Y-92650000D01*
X140899999Y-92583333D01*
X140899999Y-92383333D01*
X140933333Y-92316667D01*
X140966666Y-92283333D01*
X141033333Y-92250000D01*
X141166666Y-92250000D01*
X141233333Y-92283333D01*
X130866669Y-93450000D02*
X131000002Y-93916667D01*
X131133336Y-93583333D01*
X131266669Y-93916667D01*
X131400002Y-93450000D01*
X131666669Y-93916667D02*
X131666669Y-93216667D01*
X131666669Y-93483333D02*
X131733335Y-93450000D01*
X131866669Y-93450000D01*
X131933335Y-93483333D01*
X131966669Y-93516667D01*
X132000002Y-93583333D01*
X132000002Y-93783333D01*
X131966669Y-93850000D01*
X131933335Y-93883333D01*
X131866669Y-93916667D01*
X131733335Y-93916667D01*
X131666669Y-93883333D01*
X132300002Y-93916667D02*
X132300002Y-93450000D01*
X132300002Y-93583333D02*
X132333335Y-93516667D01*
X132366668Y-93483333D01*
X132433335Y-93450000D01*
X132500002Y-93450000D01*
X133033335Y-93916667D02*
X133033335Y-93550000D01*
X133000001Y-93483333D01*
X132933335Y-93450000D01*
X132800001Y-93450000D01*
X132733335Y-93483333D01*
X133033335Y-93883333D02*
X132966668Y-93916667D01*
X132800001Y-93916667D01*
X132733335Y-93883333D01*
X132700001Y-93816667D01*
X132700001Y-93750000D01*
X132733335Y-93683333D01*
X132800001Y-93650000D01*
X132966668Y-93650000D01*
X133033335Y-93616667D01*
X133666668Y-93450000D02*
X133666668Y-93916667D01*
X133366668Y-93450000D02*
X133366668Y-93816667D01*
X133400001Y-93883333D01*
X133466668Y-93916667D01*
X133566668Y-93916667D01*
X133633334Y-93883333D01*
X133666668Y-93850000D01*
X134000001Y-93450000D02*
X134000001Y-93916667D01*
X134000001Y-93516667D02*
X134033334Y-93483333D01*
X134100001Y-93450000D01*
X134200001Y-93450000D01*
X134266667Y-93483333D01*
X134300001Y-93550000D01*
X134300001Y-93916667D01*
X135066667Y-93583333D02*
X135033334Y-93550000D01*
X134966667Y-93516667D01*
X134900000Y-93516667D01*
X134833334Y-93550000D01*
X134800000Y-93583333D01*
X134766667Y-93650000D01*
X134766667Y-93716667D01*
X134800000Y-93783333D01*
X134833334Y-93816667D01*
X134900000Y-93850000D01*
X134966667Y-93850000D01*
X135033334Y-93816667D01*
X135066667Y-93783333D01*
X135066667Y-93516667D02*
X135066667Y-93783333D01*
X135100000Y-93816667D01*
X135133334Y-93816667D01*
X135200000Y-93783333D01*
X135233334Y-93716667D01*
X135233334Y-93550000D01*
X135166667Y-93450000D01*
X135066667Y-93383333D01*
X134933334Y-93350000D01*
X134800000Y-93383333D01*
X134700000Y-93450000D01*
X134633334Y-93550000D01*
X134600000Y-93683333D01*
X134633334Y-93816667D01*
X134700000Y-93916667D01*
X134800000Y-93983333D01*
X134933334Y-94016667D01*
X135066667Y-93983333D01*
X135166667Y-93916667D01*
X135533334Y-93916667D02*
X135533334Y-93450000D01*
X135533334Y-93516667D02*
X135566667Y-93483333D01*
X135633334Y-93450000D01*
X135733334Y-93450000D01*
X135800000Y-93483333D01*
X135833334Y-93550000D01*
X135833334Y-93916667D01*
X135833334Y-93550000D02*
X135866667Y-93483333D01*
X135933334Y-93450000D01*
X136033334Y-93450000D01*
X136100000Y-93483333D01*
X136133334Y-93550000D01*
X136133334Y-93916667D01*
X136466667Y-93916667D02*
X136466667Y-93450000D01*
X136466667Y-93216667D02*
X136433333Y-93250000D01*
X136466667Y-93283333D01*
X136500000Y-93250000D01*
X136466667Y-93216667D01*
X136466667Y-93283333D01*
X136700000Y-93450000D02*
X136966666Y-93450000D01*
X136800000Y-93216667D02*
X136800000Y-93816667D01*
X136833333Y-93883333D01*
X136900000Y-93916667D01*
X136966666Y-93916667D01*
X137200000Y-93850000D02*
X137233333Y-93883333D01*
X137200000Y-93916667D01*
X137166666Y-93883333D01*
X137200000Y-93850000D01*
X137200000Y-93916667D01*
X137799999Y-93883333D02*
X137733333Y-93916667D01*
X137599999Y-93916667D01*
X137533333Y-93883333D01*
X137499999Y-93816667D01*
X137499999Y-93550000D01*
X137533333Y-93483333D01*
X137599999Y-93450000D01*
X137733333Y-93450000D01*
X137799999Y-93483333D01*
X137833333Y-93550000D01*
X137833333Y-93616667D01*
X137499999Y-93683333D01*
X138433333Y-93916667D02*
X138433333Y-93216667D01*
X138433333Y-93883333D02*
X138366666Y-93916667D01*
X138233333Y-93916667D01*
X138166666Y-93883333D01*
X138133333Y-93850000D01*
X138099999Y-93783333D01*
X138099999Y-93583333D01*
X138133333Y-93516667D01*
X138166666Y-93483333D01*
X138233333Y-93450000D01*
X138366666Y-93450000D01*
X138433333Y-93483333D01*
X139066666Y-93450000D02*
X139066666Y-93916667D01*
X138766666Y-93450000D02*
X138766666Y-93816667D01*
X138799999Y-93883333D01*
X138866666Y-93916667D01*
X138966666Y-93916667D01*
X139033332Y-93883333D01*
X139066666Y-93850000D01*
X136079487Y-60862324D02*
X134347437Y-59862324D01*
X133322437Y-61637676D02*
X135054487Y-62637676D01*
X138025000Y-72500000D02*
X138025000Y-70500000D01*
X135975000Y-70500000D02*
X135975000Y-72500000D01*
X141025000Y-72500000D02*
X141025000Y-70500000D01*
X138975000Y-70500000D02*
X138975000Y-72500000D01*
X134579487Y-63362324D02*
X132847437Y-62362324D01*
X131822437Y-64137676D02*
X133554487Y-65137676D01*
X153025000Y-72500000D02*
X153025000Y-70500000D01*
X150975000Y-70500000D02*
X150975000Y-72500000D01*
X154500000Y-64225000D02*
X152500000Y-64225000D01*
X152500000Y-66275000D02*
X154500000Y-66275000D01*
X152500000Y-63525000D02*
X154500000Y-63525000D01*
X154500000Y-61475000D02*
X152500000Y-61475000D01*
X182025000Y-73000000D02*
X182025000Y-71000000D01*
X179975000Y-71000000D02*
X179975000Y-73000000D01*
X179025000Y-73000000D02*
X179025000Y-71000000D01*
X176975000Y-71000000D02*
X176975000Y-73000000D01*
X167025000Y-73000000D02*
X167025000Y-71000000D01*
X164975000Y-71000000D02*
X164975000Y-73000000D01*
X163500000Y-66225000D02*
X165500000Y-66225000D01*
X165500000Y-64175000D02*
X163500000Y-64175000D01*
X165500000Y-61375000D02*
X163500000Y-61375000D01*
X163500000Y-63425000D02*
X165500000Y-63425000D01*
D12*
X143000000Y-94500000D02*
X155000000Y-94500000D01*
X155000000Y-95500000D02*
X143000000Y-95500000D01*
X143000000Y-95500000D02*
X143000000Y-88500000D01*
X143000000Y-88500000D02*
X155000000Y-88500000D01*
X155000000Y-88500000D02*
X155000000Y-95500000D01*
X165000000Y-51500000D02*
X153000000Y-51500000D01*
X153000000Y-50500000D02*
X165000000Y-50500000D01*
X165000000Y-50500000D02*
X165000000Y-57500000D01*
X165000000Y-57500000D02*
X153000000Y-57500000D01*
X153000000Y-57500000D02*
X153000000Y-50500000D01*
D11*
X152650000Y-78375000D02*
X151450000Y-78375000D01*
X151450000Y-76625000D02*
X152650000Y-76625000D01*
X165400000Y-76625000D02*
X166600000Y-76625000D01*
X166600000Y-78375000D02*
X165400000Y-78375000D01*
X169125000Y-87575000D02*
X169350000Y-87575000D01*
X169125000Y-80325000D02*
X169425000Y-80325000D01*
X176375000Y-80325000D02*
X176075000Y-80325000D01*
X176375000Y-87575000D02*
X176075000Y-87575000D01*
X169125000Y-87575000D02*
X169125000Y-87275000D01*
X176375000Y-87575000D02*
X176375000Y-87275000D01*
X176375000Y-80325000D02*
X176375000Y-80625000D01*
X169125000Y-80325000D02*
X169125000Y-80625000D01*
X169350000Y-87575000D02*
X169350000Y-88800000D01*
X144544871Y-86366213D02*
X147592871Y-86366213D01*
X147592871Y-86366213D02*
X147592871Y-79254213D01*
X147592871Y-79254213D02*
X144544871Y-79254213D01*
X141496871Y-86366213D02*
X140734871Y-86366213D01*
X140734871Y-86366213D02*
X138448871Y-84842213D01*
X138448871Y-84842213D02*
X138448871Y-80778213D01*
X138448871Y-80778213D02*
X140734871Y-79254213D01*
X140734871Y-79254213D02*
X141496871Y-79254213D01*
X156060000Y-83487500D02*
X156110000Y-83487500D01*
X156060000Y-79337500D02*
X156205000Y-79337500D01*
X161210000Y-79337500D02*
X161065000Y-79337500D01*
X161210000Y-83487500D02*
X161065000Y-83487500D01*
X156060000Y-83487500D02*
X156060000Y-79337500D01*
X161210000Y-83487500D02*
X161210000Y-79337500D01*
X156110000Y-83487500D02*
X156110000Y-84887500D01*
X158565443Y-90694852D02*
X165164557Y-94504852D01*
X159835443Y-88495148D02*
X166434557Y-92305148D01*
X157533252Y-86842661D02*
X158875591Y-87617661D01*
X165164557Y-94504852D02*
X166434557Y-92305148D01*
X159835443Y-88495148D02*
X158565443Y-90694852D01*
X157325591Y-90302339D02*
X155983252Y-89527339D01*
X155983252Y-89527339D02*
X157533252Y-86842661D01*
D12*
X169850000Y-94150000D02*
X170350000Y-94650000D01*
D11*
X167900000Y-93100000D02*
X167900000Y-92400000D01*
X169100000Y-92400000D02*
X169100000Y-93100000D01*
X176100000Y-92400000D02*
X176100000Y-93100000D01*
X174900000Y-93100000D02*
X174900000Y-92400000D01*
X179600000Y-79650000D02*
X179600000Y-80350000D01*
X178400000Y-80350000D02*
X178400000Y-79650000D01*
X165400000Y-88600000D02*
X165400000Y-87900000D01*
X166600000Y-87900000D02*
X166600000Y-88600000D01*
X155100000Y-80900000D02*
X155100000Y-81600000D01*
X153900000Y-81600000D02*
X153900000Y-80900000D01*
X159650000Y-76150000D02*
X160350000Y-76150000D01*
X160350000Y-77350000D02*
X159650000Y-77350000D01*
X184396475Y-64887676D02*
X186128525Y-63887676D01*
X185103525Y-62112324D02*
X183371475Y-63112324D01*
X182896475Y-62387676D02*
X184628525Y-61387676D01*
X183603525Y-59612324D02*
X181871475Y-60612324D01*
X180350000Y-89850000D02*
X179650000Y-89850000D01*
X179650000Y-88650000D02*
X180350000Y-88650000D01*
X178650000Y-87350000D02*
X178650000Y-86650000D01*
X179850000Y-86650000D02*
X179850000Y-87350000D01*
X180150000Y-84100000D02*
X180150000Y-83400000D01*
X181350000Y-83400000D02*
X181350000Y-84100000D01*
X179500000Y-91850000D02*
X180500000Y-91850000D01*
X180500000Y-90150000D02*
X179500000Y-90150000D01*
X185500000Y-78650000D02*
X184500000Y-78650000D01*
X184500000Y-80350000D02*
X185500000Y-80350000D01*
X197000000Y-85000000D02*
X197000000Y-91000000D01*
X197000000Y-85000000D02*
G75*
G03X196000000Y-84000000I-1000000J0D01*
G01*
X196000000Y-92000000D02*
G75*
G03X197000000Y-91000000I0J1000000D01*
G01*
X190000000Y-92000000D02*
X196000000Y-92000000D01*
X190000000Y-84000000D02*
X196000000Y-84000000D01*
X190000000Y-92000000D02*
G75*
G03X189000000Y-93000000I0J-1000000D01*
G01*
X189000000Y-83000000D02*
G75*
G03X190000000Y-84000000I1000000J0D01*
G01*
X186500000Y-83000000D02*
X189000000Y-83000000D01*
X186500000Y-93000000D02*
X189000000Y-93000000D01*
X181425000Y-86500000D02*
X181425000Y-87500000D01*
X180075000Y-87500000D02*
X180075000Y-86500000D01*
X179925000Y-83250000D02*
X179925000Y-84250000D01*
X178575000Y-84250000D02*
X178575000Y-83250000D01*
X151500000Y-78575000D02*
X152500000Y-78575000D01*
X152500000Y-79925000D02*
X151500000Y-79925000D01*
X166500000Y-79925000D02*
X165500000Y-79925000D01*
X165500000Y-78575000D02*
X166500000Y-78575000D01*
X174500000Y-78425000D02*
X173500000Y-78425000D01*
X173500000Y-77075000D02*
X174500000Y-77075000D01*
X170750000Y-77075000D02*
X171750000Y-77075000D01*
X171750000Y-78425000D02*
X170750000Y-78425000D01*
X149600000Y-80650000D02*
X149600000Y-81350000D01*
X148400000Y-81350000D02*
X148400000Y-80650000D01*
X149600000Y-83900000D02*
X149600000Y-84600000D01*
X148400000Y-84600000D02*
X148400000Y-83900000D01*
D12*
X147785894Y-56741665D02*
X142156729Y-53491665D01*
X143535894Y-64102881D02*
X137906729Y-60852881D01*
X174464106Y-64055608D02*
X180093271Y-60805608D01*
X170214106Y-56694392D02*
X175843271Y-53444392D01*
D11*
X154500000Y-58775000D02*
X152500000Y-58775000D01*
X152500000Y-60825000D02*
X154500000Y-60825000D01*
X163400000Y-60625000D02*
X165400000Y-60625000D01*
X165400000Y-58575000D02*
X163400000Y-58575000D01*
M02*
