G04 #@! TF.FileFunction,Copper,L2,Inr,Signal*
%FSLAX46Y46*%
G04 Gerber Fmt 4.6, Leading zero omitted, Abs format (unit mm)*
G04 Created by KiCad (PCBNEW 4.0.4+e1-6308~48~ubuntu14.04.1-stable) date Sun Nov 27 15:14:10 2016*
%MOMM*%
%LPD*%
G01*
G04 APERTURE LIST*
%ADD10C,0.100000*%
%ADD11O,1.800000X2.500000*%
%ADD12C,1.727200*%
%ADD13C,3.500000*%
%ADD14C,2.500000*%
%ADD15C,0.700000*%
%ADD16C,0.160000*%
%ADD17C,0.240000*%
%ADD18C,0.254000*%
G04 APERTURE END LIST*
D10*
D11*
X145500000Y-92000000D03*
X149000000Y-92000000D03*
X152500000Y-92000000D03*
X162500000Y-54000000D03*
X159000000Y-54000000D03*
X155500000Y-54000000D03*
D10*
G36*
X158340491Y-90271682D02*
X156844691Y-89408082D01*
X157860691Y-87648318D01*
X159356491Y-88511918D01*
X158340491Y-90271682D01*
X158340491Y-90271682D01*
G37*
D12*
X160224096Y-90361982D02*
X160376496Y-90098018D01*
X162423800Y-91631982D02*
X162576200Y-91368018D01*
X164623505Y-92901982D02*
X164775905Y-92638018D01*
D13*
X188500000Y-88000000D03*
X184000000Y-93000000D03*
X184000000Y-83000000D03*
D14*
X184000000Y-88000000D03*
D15*
X135750000Y-73500000D03*
X138500000Y-73750000D03*
X138500000Y-74500000D03*
X136250000Y-74500000D03*
X137750000Y-74500000D03*
X137000000Y-74500000D03*
X141500000Y-74250000D03*
X141250000Y-73500000D03*
X139250000Y-74500000D03*
X140750000Y-74500000D03*
X140000000Y-74500000D03*
X150500000Y-74250000D03*
X150750000Y-73500000D03*
X152750000Y-74500000D03*
X151250000Y-74500000D03*
X152000000Y-74500000D03*
X161575000Y-76750000D03*
X160750000Y-75950000D03*
X135000000Y-65600000D03*
X135800000Y-63500000D03*
X135800000Y-64300000D03*
X135400000Y-65000000D03*
X136500000Y-63200000D03*
X137300000Y-61800000D03*
X136900000Y-62500000D03*
X182100000Y-63500000D03*
X183100000Y-65500000D03*
X182300000Y-64200000D03*
X182700000Y-64800000D03*
X180800000Y-61600000D03*
X181600000Y-63000000D03*
X181200000Y-62300000D03*
X176500000Y-93500000D03*
X167600000Y-79200000D03*
X151300000Y-80300000D03*
X175600000Y-77700000D03*
X169700000Y-77800000D03*
X187100000Y-79500000D03*
X180000000Y-80800000D03*
X179200000Y-82100000D03*
X156950000Y-81950000D03*
X156950000Y-80850000D03*
X160300000Y-80900000D03*
X160300000Y-81900000D03*
X157400000Y-81400000D03*
X158600000Y-81400000D03*
X159800000Y-81400000D03*
X165000000Y-87500000D03*
X167200000Y-86000000D03*
X167300000Y-86800000D03*
X150000000Y-85000000D03*
X150000000Y-81700000D03*
X159300000Y-85500000D03*
X154500000Y-83000000D03*
X165300000Y-74600000D03*
X166700000Y-74600000D03*
X166000000Y-74600000D03*
X182400000Y-74200000D03*
X181800000Y-74600000D03*
X176600000Y-74200000D03*
X177200000Y-74600000D03*
X180200000Y-74600000D03*
X179500000Y-74300000D03*
X178800000Y-74600000D03*
X182400000Y-73500000D03*
X181000000Y-74600000D03*
X178000000Y-74600000D03*
X179500000Y-73500000D03*
X176600000Y-73500000D03*
X167400000Y-74300000D03*
X167400000Y-73500000D03*
X173600000Y-75600000D03*
X172800000Y-75600000D03*
X172000000Y-75600000D03*
X171200000Y-75600000D03*
X170400000Y-75600000D03*
X144400000Y-75600000D03*
X145200000Y-75600000D03*
X146000000Y-75600000D03*
X146800000Y-75600000D03*
X147600000Y-75600000D03*
X171000000Y-90600000D03*
X144400000Y-74800000D03*
X145200000Y-74800000D03*
X147600000Y-74800000D03*
X146800000Y-74800000D03*
X146000000Y-74800000D03*
X170400000Y-74800000D03*
X171200000Y-74800000D03*
X173600000Y-74800000D03*
X172800000Y-74800000D03*
X172000000Y-74800000D03*
X158047500Y-82000000D03*
X159222500Y-82000000D03*
X159222500Y-80825000D03*
X158047500Y-80825000D03*
X159250000Y-75925000D03*
X154500000Y-84100000D03*
X153500000Y-80500000D03*
X150000000Y-80200000D03*
X154500000Y-79500000D03*
X158280693Y-76677531D03*
X178300000Y-87800000D03*
X177450000Y-79250000D03*
X173200000Y-89400000D03*
X166000000Y-90000000D03*
X169900000Y-89300000D03*
X153300000Y-86900000D03*
X130700000Y-63100000D03*
X132000000Y-61300000D03*
X131500000Y-61800000D03*
X131100000Y-62500000D03*
X132200000Y-60600000D03*
X133000000Y-59300000D03*
X132600000Y-60000000D03*
X185100000Y-59200000D03*
X185900000Y-61100000D03*
X185900000Y-60400000D03*
X185500000Y-59800000D03*
X187400000Y-62900000D03*
X186500000Y-61500000D03*
X186900000Y-62200000D03*
X143600000Y-68400000D03*
X144400000Y-68400000D03*
X144400000Y-68400000D03*
X145200000Y-68400000D03*
X146000000Y-68400000D03*
X146000000Y-68400000D03*
X146800000Y-68400000D03*
X147600000Y-68400000D03*
X148400000Y-68400000D03*
X143600000Y-69200000D03*
X144400000Y-69200000D03*
X145200000Y-69200000D03*
X148400000Y-69200000D03*
X147600000Y-69200000D03*
X146800000Y-69200000D03*
X146000000Y-69200000D03*
X169600000Y-68400000D03*
X170400000Y-68400000D03*
X171200000Y-68400000D03*
X172000000Y-68400000D03*
X172800000Y-68400000D03*
X173600000Y-68400000D03*
X174400000Y-68400000D03*
X169600000Y-69200000D03*
X170400000Y-69200000D03*
X171200000Y-69200000D03*
X174400000Y-69200000D03*
X173600000Y-69200000D03*
X172800000Y-69200000D03*
X172000000Y-69200000D03*
X149100000Y-77000000D03*
X168100000Y-77500000D03*
X173200000Y-81500000D03*
X166900000Y-82300000D03*
X166900000Y-81300000D03*
X172300000Y-81100000D03*
X169900000Y-83100000D03*
X171200000Y-83100000D03*
X174000000Y-86900000D03*
X178300000Y-86200000D03*
D16*
X149000000Y-92000000D02*
X149000000Y-90590000D01*
D17*
X185100000Y-53850000D02*
X185250000Y-54000000D01*
X185100000Y-59200000D02*
X185100000Y-53850000D01*
D18*
G36*
X159873153Y-75774789D02*
X159872849Y-76123681D01*
X160006082Y-76446131D01*
X160252571Y-76693051D01*
X160574789Y-76826847D01*
X160697933Y-76826954D01*
X160697849Y-76923681D01*
X160831082Y-77246131D01*
X161077571Y-77493051D01*
X161399789Y-77626847D01*
X161748681Y-77627151D01*
X162071131Y-77493918D01*
X162318051Y-77247429D01*
X162373000Y-77115097D01*
X162373000Y-85873000D01*
X160094718Y-85873000D01*
X160176847Y-85675211D01*
X160177151Y-85326319D01*
X160043918Y-85003869D01*
X159797429Y-84756949D01*
X159475211Y-84623153D01*
X159126319Y-84622849D01*
X158803869Y-84756082D01*
X158556949Y-85002571D01*
X158423153Y-85324789D01*
X158422849Y-85673681D01*
X158505206Y-85873000D01*
X152500000Y-85873000D01*
X152450590Y-85883006D01*
X152410197Y-85910197D01*
X150410197Y-87910197D01*
X150382334Y-87952211D01*
X150373000Y-88000000D01*
X150373000Y-94873000D01*
X147627000Y-94873000D01*
X147627000Y-85173681D01*
X149122849Y-85173681D01*
X149256082Y-85496131D01*
X149502571Y-85743051D01*
X149824789Y-85876847D01*
X150173681Y-85877151D01*
X150496131Y-85743918D01*
X150743051Y-85497429D01*
X150876847Y-85175211D01*
X150877151Y-84826319D01*
X150743918Y-84503869D01*
X150497429Y-84256949D01*
X150175211Y-84123153D01*
X149826319Y-84122849D01*
X149503869Y-84256082D01*
X149256949Y-84502571D01*
X149123153Y-84824789D01*
X149122849Y-85173681D01*
X147627000Y-85173681D01*
X147627000Y-83173681D01*
X153622849Y-83173681D01*
X153756082Y-83496131D01*
X154002571Y-83743051D01*
X154324789Y-83876847D01*
X154673681Y-83877151D01*
X154996131Y-83743918D01*
X155243051Y-83497429D01*
X155376847Y-83175211D01*
X155377151Y-82826319D01*
X155243918Y-82503869D01*
X154997429Y-82256949D01*
X154675211Y-82123153D01*
X154326319Y-82122849D01*
X154003869Y-82256082D01*
X153756949Y-82502571D01*
X153623153Y-82824789D01*
X153622849Y-83173681D01*
X147627000Y-83173681D01*
X147627000Y-81873681D01*
X149122849Y-81873681D01*
X149256082Y-82196131D01*
X149502571Y-82443051D01*
X149824789Y-82576847D01*
X150173681Y-82577151D01*
X150496131Y-82443918D01*
X150743051Y-82197429D01*
X150876847Y-81875211D01*
X150877151Y-81526319D01*
X150743918Y-81203869D01*
X150497429Y-80956949D01*
X150175211Y-80823153D01*
X149826319Y-80822849D01*
X149503869Y-80956082D01*
X149256949Y-81202571D01*
X149123153Y-81524789D01*
X149122849Y-81873681D01*
X147627000Y-81873681D01*
X147627000Y-79627000D01*
X150732827Y-79627000D01*
X150556949Y-79802571D01*
X150423153Y-80124789D01*
X150422849Y-80473681D01*
X150556082Y-80796131D01*
X150802571Y-81043051D01*
X151124789Y-81176847D01*
X151473681Y-81177151D01*
X151796131Y-81043918D01*
X151816403Y-81023681D01*
X156072849Y-81023681D01*
X156206082Y-81346131D01*
X156259735Y-81399877D01*
X156206949Y-81452571D01*
X156073153Y-81774789D01*
X156072849Y-82123681D01*
X156206082Y-82446131D01*
X156452571Y-82693051D01*
X156774789Y-82826847D01*
X157123681Y-82827151D01*
X157446131Y-82693918D01*
X157473625Y-82666472D01*
X157550071Y-82743051D01*
X157872289Y-82876847D01*
X158221181Y-82877151D01*
X158543631Y-82743918D01*
X158634943Y-82652765D01*
X158725071Y-82743051D01*
X159047289Y-82876847D01*
X159396181Y-82877151D01*
X159718631Y-82743918D01*
X159814650Y-82648067D01*
X160124789Y-82776847D01*
X160473681Y-82777151D01*
X160796131Y-82643918D01*
X161043051Y-82397429D01*
X161176847Y-82075211D01*
X161177151Y-81726319D01*
X161043918Y-81403869D01*
X161040265Y-81400210D01*
X161043051Y-81397429D01*
X161176847Y-81075211D01*
X161177151Y-80726319D01*
X161043918Y-80403869D01*
X160797429Y-80156949D01*
X160475211Y-80023153D01*
X160126319Y-80022849D01*
X159803869Y-80156082D01*
X159798892Y-80161050D01*
X159719929Y-80081949D01*
X159397711Y-79948153D01*
X159048819Y-79947849D01*
X158726369Y-80081082D01*
X158635057Y-80172235D01*
X158544929Y-80081949D01*
X158222711Y-79948153D01*
X157873819Y-79947849D01*
X157551369Y-80081082D01*
X157486375Y-80145963D01*
X157447429Y-80106949D01*
X157125211Y-79973153D01*
X156776319Y-79972849D01*
X156453869Y-80106082D01*
X156206949Y-80352571D01*
X156073153Y-80674789D01*
X156072849Y-81023681D01*
X151816403Y-81023681D01*
X152043051Y-80797429D01*
X152176847Y-80475211D01*
X152177151Y-80126319D01*
X152043918Y-79803869D01*
X151867358Y-79627000D01*
X153000000Y-79627000D01*
X153049410Y-79616994D01*
X153089803Y-79589803D01*
X157052606Y-75627000D01*
X159934520Y-75627000D01*
X159873153Y-75774789D01*
X159873153Y-75774789D01*
G37*
X159873153Y-75774789D02*
X159872849Y-76123681D01*
X160006082Y-76446131D01*
X160252571Y-76693051D01*
X160574789Y-76826847D01*
X160697933Y-76826954D01*
X160697849Y-76923681D01*
X160831082Y-77246131D01*
X161077571Y-77493051D01*
X161399789Y-77626847D01*
X161748681Y-77627151D01*
X162071131Y-77493918D01*
X162318051Y-77247429D01*
X162373000Y-77115097D01*
X162373000Y-85873000D01*
X160094718Y-85873000D01*
X160176847Y-85675211D01*
X160177151Y-85326319D01*
X160043918Y-85003869D01*
X159797429Y-84756949D01*
X159475211Y-84623153D01*
X159126319Y-84622849D01*
X158803869Y-84756082D01*
X158556949Y-85002571D01*
X158423153Y-85324789D01*
X158422849Y-85673681D01*
X158505206Y-85873000D01*
X152500000Y-85873000D01*
X152450590Y-85883006D01*
X152410197Y-85910197D01*
X150410197Y-87910197D01*
X150382334Y-87952211D01*
X150373000Y-88000000D01*
X150373000Y-94873000D01*
X147627000Y-94873000D01*
X147627000Y-85173681D01*
X149122849Y-85173681D01*
X149256082Y-85496131D01*
X149502571Y-85743051D01*
X149824789Y-85876847D01*
X150173681Y-85877151D01*
X150496131Y-85743918D01*
X150743051Y-85497429D01*
X150876847Y-85175211D01*
X150877151Y-84826319D01*
X150743918Y-84503869D01*
X150497429Y-84256949D01*
X150175211Y-84123153D01*
X149826319Y-84122849D01*
X149503869Y-84256082D01*
X149256949Y-84502571D01*
X149123153Y-84824789D01*
X149122849Y-85173681D01*
X147627000Y-85173681D01*
X147627000Y-83173681D01*
X153622849Y-83173681D01*
X153756082Y-83496131D01*
X154002571Y-83743051D01*
X154324789Y-83876847D01*
X154673681Y-83877151D01*
X154996131Y-83743918D01*
X155243051Y-83497429D01*
X155376847Y-83175211D01*
X155377151Y-82826319D01*
X155243918Y-82503869D01*
X154997429Y-82256949D01*
X154675211Y-82123153D01*
X154326319Y-82122849D01*
X154003869Y-82256082D01*
X153756949Y-82502571D01*
X153623153Y-82824789D01*
X153622849Y-83173681D01*
X147627000Y-83173681D01*
X147627000Y-81873681D01*
X149122849Y-81873681D01*
X149256082Y-82196131D01*
X149502571Y-82443051D01*
X149824789Y-82576847D01*
X150173681Y-82577151D01*
X150496131Y-82443918D01*
X150743051Y-82197429D01*
X150876847Y-81875211D01*
X150877151Y-81526319D01*
X150743918Y-81203869D01*
X150497429Y-80956949D01*
X150175211Y-80823153D01*
X149826319Y-80822849D01*
X149503869Y-80956082D01*
X149256949Y-81202571D01*
X149123153Y-81524789D01*
X149122849Y-81873681D01*
X147627000Y-81873681D01*
X147627000Y-79627000D01*
X150732827Y-79627000D01*
X150556949Y-79802571D01*
X150423153Y-80124789D01*
X150422849Y-80473681D01*
X150556082Y-80796131D01*
X150802571Y-81043051D01*
X151124789Y-81176847D01*
X151473681Y-81177151D01*
X151796131Y-81043918D01*
X151816403Y-81023681D01*
X156072849Y-81023681D01*
X156206082Y-81346131D01*
X156259735Y-81399877D01*
X156206949Y-81452571D01*
X156073153Y-81774789D01*
X156072849Y-82123681D01*
X156206082Y-82446131D01*
X156452571Y-82693051D01*
X156774789Y-82826847D01*
X157123681Y-82827151D01*
X157446131Y-82693918D01*
X157473625Y-82666472D01*
X157550071Y-82743051D01*
X157872289Y-82876847D01*
X158221181Y-82877151D01*
X158543631Y-82743918D01*
X158634943Y-82652765D01*
X158725071Y-82743051D01*
X159047289Y-82876847D01*
X159396181Y-82877151D01*
X159718631Y-82743918D01*
X159814650Y-82648067D01*
X160124789Y-82776847D01*
X160473681Y-82777151D01*
X160796131Y-82643918D01*
X161043051Y-82397429D01*
X161176847Y-82075211D01*
X161177151Y-81726319D01*
X161043918Y-81403869D01*
X161040265Y-81400210D01*
X161043051Y-81397429D01*
X161176847Y-81075211D01*
X161177151Y-80726319D01*
X161043918Y-80403869D01*
X160797429Y-80156949D01*
X160475211Y-80023153D01*
X160126319Y-80022849D01*
X159803869Y-80156082D01*
X159798892Y-80161050D01*
X159719929Y-80081949D01*
X159397711Y-79948153D01*
X159048819Y-79947849D01*
X158726369Y-80081082D01*
X158635057Y-80172235D01*
X158544929Y-80081949D01*
X158222711Y-79948153D01*
X157873819Y-79947849D01*
X157551369Y-80081082D01*
X157486375Y-80145963D01*
X157447429Y-80106949D01*
X157125211Y-79973153D01*
X156776319Y-79972849D01*
X156453869Y-80106082D01*
X156206949Y-80352571D01*
X156073153Y-80674789D01*
X156072849Y-81023681D01*
X151816403Y-81023681D01*
X152043051Y-80797429D01*
X152176847Y-80475211D01*
X152177151Y-80126319D01*
X152043918Y-79803869D01*
X151867358Y-79627000D01*
X153000000Y-79627000D01*
X153049410Y-79616994D01*
X153089803Y-79589803D01*
X157052606Y-75627000D01*
X159934520Y-75627000D01*
X159873153Y-75774789D01*
G36*
X189873000Y-57373000D02*
X141000000Y-57373000D01*
X140950590Y-57383006D01*
X140910197Y-57410197D01*
X137397309Y-60923085D01*
X137126319Y-60922849D01*
X136803869Y-61056082D01*
X136556949Y-61302571D01*
X136423153Y-61624789D01*
X136423046Y-61748158D01*
X136403869Y-61756082D01*
X136156949Y-62002571D01*
X136042714Y-62277680D01*
X135697483Y-62622911D01*
X135626319Y-62622849D01*
X135303869Y-62756082D01*
X135056949Y-63002571D01*
X134923153Y-63324789D01*
X134923090Y-63397304D01*
X134910197Y-63410197D01*
X134882334Y-63452211D01*
X134873000Y-63500000D01*
X134873000Y-64286897D01*
X134656949Y-64502571D01*
X134523153Y-64824789D01*
X134523133Y-64848122D01*
X134503869Y-64856082D01*
X134256949Y-65102571D01*
X134123153Y-65424789D01*
X134122849Y-65773681D01*
X134256082Y-66096131D01*
X134502571Y-66343051D01*
X134824789Y-66476847D01*
X134873000Y-66476889D01*
X134873000Y-73500383D01*
X134872849Y-73673681D01*
X134873000Y-73674046D01*
X134873000Y-77000000D01*
X134883006Y-77049410D01*
X134911447Y-77091035D01*
X134953841Y-77118315D01*
X135000000Y-77127000D01*
X146873000Y-77127000D01*
X146873000Y-94873000D01*
X128127000Y-94873000D01*
X128127000Y-72421230D01*
X128872632Y-72421230D01*
X129195766Y-73203274D01*
X129793578Y-73802131D01*
X130575057Y-74126630D01*
X131421230Y-74127368D01*
X132203274Y-73804234D01*
X132802131Y-73206422D01*
X133126630Y-72424943D01*
X133127368Y-71578770D01*
X132804234Y-70796726D01*
X132206422Y-70197869D01*
X131424943Y-69873370D01*
X130578770Y-69872632D01*
X129796726Y-70195766D01*
X129197869Y-70793578D01*
X128873370Y-71575057D01*
X128872632Y-72421230D01*
X128127000Y-72421230D01*
X128127000Y-53615187D01*
X154073000Y-53615187D01*
X154073000Y-54384813D01*
X154181624Y-54930902D01*
X154490959Y-55393854D01*
X154953911Y-55703189D01*
X155500000Y-55811813D01*
X156046089Y-55703189D01*
X156509041Y-55393854D01*
X156818376Y-54930902D01*
X156927000Y-54384813D01*
X156927000Y-53615187D01*
X157573000Y-53615187D01*
X157573000Y-54384813D01*
X157681624Y-54930902D01*
X157990959Y-55393854D01*
X158453911Y-55703189D01*
X159000000Y-55811813D01*
X159546089Y-55703189D01*
X160009041Y-55393854D01*
X160318376Y-54930902D01*
X160427000Y-54384813D01*
X160427000Y-53615187D01*
X161073000Y-53615187D01*
X161073000Y-54384813D01*
X161181624Y-54930902D01*
X161490959Y-55393854D01*
X161953911Y-55703189D01*
X162500000Y-55811813D01*
X163046089Y-55703189D01*
X163509041Y-55393854D01*
X163818376Y-54930902D01*
X163927000Y-54384813D01*
X163927000Y-53615187D01*
X163818376Y-53069098D01*
X163509041Y-52606146D01*
X163046089Y-52296811D01*
X162500000Y-52188187D01*
X161953911Y-52296811D01*
X161490959Y-52606146D01*
X161181624Y-53069098D01*
X161073000Y-53615187D01*
X160427000Y-53615187D01*
X160318376Y-53069098D01*
X160009041Y-52606146D01*
X159546089Y-52296811D01*
X159000000Y-52188187D01*
X158453911Y-52296811D01*
X157990959Y-52606146D01*
X157681624Y-53069098D01*
X157573000Y-53615187D01*
X156927000Y-53615187D01*
X156818376Y-53069098D01*
X156509041Y-52606146D01*
X156046089Y-52296811D01*
X155500000Y-52188187D01*
X154953911Y-52296811D01*
X154490959Y-52606146D01*
X154181624Y-53069098D01*
X154073000Y-53615187D01*
X128127000Y-53615187D01*
X128127000Y-51127000D01*
X189873000Y-51127000D01*
X189873000Y-57373000D01*
X189873000Y-57373000D01*
G37*
X189873000Y-57373000D02*
X141000000Y-57373000D01*
X140950590Y-57383006D01*
X140910197Y-57410197D01*
X137397309Y-60923085D01*
X137126319Y-60922849D01*
X136803869Y-61056082D01*
X136556949Y-61302571D01*
X136423153Y-61624789D01*
X136423046Y-61748158D01*
X136403869Y-61756082D01*
X136156949Y-62002571D01*
X136042714Y-62277680D01*
X135697483Y-62622911D01*
X135626319Y-62622849D01*
X135303869Y-62756082D01*
X135056949Y-63002571D01*
X134923153Y-63324789D01*
X134923090Y-63397304D01*
X134910197Y-63410197D01*
X134882334Y-63452211D01*
X134873000Y-63500000D01*
X134873000Y-64286897D01*
X134656949Y-64502571D01*
X134523153Y-64824789D01*
X134523133Y-64848122D01*
X134503869Y-64856082D01*
X134256949Y-65102571D01*
X134123153Y-65424789D01*
X134122849Y-65773681D01*
X134256082Y-66096131D01*
X134502571Y-66343051D01*
X134824789Y-66476847D01*
X134873000Y-66476889D01*
X134873000Y-73500383D01*
X134872849Y-73673681D01*
X134873000Y-73674046D01*
X134873000Y-77000000D01*
X134883006Y-77049410D01*
X134911447Y-77091035D01*
X134953841Y-77118315D01*
X135000000Y-77127000D01*
X146873000Y-77127000D01*
X146873000Y-94873000D01*
X128127000Y-94873000D01*
X128127000Y-72421230D01*
X128872632Y-72421230D01*
X129195766Y-73203274D01*
X129793578Y-73802131D01*
X130575057Y-74126630D01*
X131421230Y-74127368D01*
X132203274Y-73804234D01*
X132802131Y-73206422D01*
X133126630Y-72424943D01*
X133127368Y-71578770D01*
X132804234Y-70796726D01*
X132206422Y-70197869D01*
X131424943Y-69873370D01*
X130578770Y-69872632D01*
X129796726Y-70195766D01*
X129197869Y-70793578D01*
X128873370Y-71575057D01*
X128872632Y-72421230D01*
X128127000Y-72421230D01*
X128127000Y-53615187D01*
X154073000Y-53615187D01*
X154073000Y-54384813D01*
X154181624Y-54930902D01*
X154490959Y-55393854D01*
X154953911Y-55703189D01*
X155500000Y-55811813D01*
X156046089Y-55703189D01*
X156509041Y-55393854D01*
X156818376Y-54930902D01*
X156927000Y-54384813D01*
X156927000Y-53615187D01*
X157573000Y-53615187D01*
X157573000Y-54384813D01*
X157681624Y-54930902D01*
X157990959Y-55393854D01*
X158453911Y-55703189D01*
X159000000Y-55811813D01*
X159546089Y-55703189D01*
X160009041Y-55393854D01*
X160318376Y-54930902D01*
X160427000Y-54384813D01*
X160427000Y-53615187D01*
X161073000Y-53615187D01*
X161073000Y-54384813D01*
X161181624Y-54930902D01*
X161490959Y-55393854D01*
X161953911Y-55703189D01*
X162500000Y-55811813D01*
X163046089Y-55703189D01*
X163509041Y-55393854D01*
X163818376Y-54930902D01*
X163927000Y-54384813D01*
X163927000Y-53615187D01*
X163818376Y-53069098D01*
X163509041Y-52606146D01*
X163046089Y-52296811D01*
X162500000Y-52188187D01*
X161953911Y-52296811D01*
X161490959Y-52606146D01*
X161181624Y-53069098D01*
X161073000Y-53615187D01*
X160427000Y-53615187D01*
X160318376Y-53069098D01*
X160009041Y-52606146D01*
X159546089Y-52296811D01*
X159000000Y-52188187D01*
X158453911Y-52296811D01*
X157990959Y-52606146D01*
X157681624Y-53069098D01*
X157573000Y-53615187D01*
X156927000Y-53615187D01*
X156818376Y-53069098D01*
X156509041Y-52606146D01*
X156046089Y-52296811D01*
X155500000Y-52188187D01*
X154953911Y-52296811D01*
X154490959Y-52606146D01*
X154181624Y-53069098D01*
X154073000Y-53615187D01*
X128127000Y-53615187D01*
X128127000Y-51127000D01*
X189873000Y-51127000D01*
X189873000Y-57373000D01*
G36*
X174856949Y-77202571D02*
X174723153Y-77524789D01*
X174722849Y-77873681D01*
X174856082Y-78196131D01*
X175102571Y-78443051D01*
X175424789Y-78576847D01*
X175773681Y-78577151D01*
X176096131Y-78443918D01*
X176343051Y-78197429D01*
X176476847Y-77875211D01*
X176477151Y-77526319D01*
X176343918Y-77203869D01*
X176267183Y-77127000D01*
X189873000Y-77127000D01*
X189873000Y-86152420D01*
X189791501Y-86070779D01*
X188954910Y-85723396D01*
X188049064Y-85722606D01*
X187211868Y-86068528D01*
X186570779Y-86708499D01*
X186223396Y-87545090D01*
X186222606Y-88450936D01*
X186568528Y-89288132D01*
X187208499Y-89929221D01*
X188045090Y-90276604D01*
X188950936Y-90277394D01*
X189788132Y-89931472D01*
X189873000Y-89846752D01*
X189873000Y-94873000D01*
X185346706Y-94873000D01*
X185929221Y-94291501D01*
X186276604Y-93454910D01*
X186277394Y-92549064D01*
X185931472Y-91711868D01*
X185291501Y-91070779D01*
X184454910Y-90723396D01*
X183549064Y-90722606D01*
X182711868Y-91068528D01*
X182070779Y-91708499D01*
X181723396Y-92545090D01*
X181722606Y-93450936D01*
X182068528Y-94288132D01*
X182652376Y-94873000D01*
X151127000Y-94873000D01*
X151127000Y-92656289D01*
X151181624Y-92930902D01*
X151490959Y-93393854D01*
X151953911Y-93703189D01*
X152500000Y-93811813D01*
X153046089Y-93703189D01*
X153509041Y-93393854D01*
X153818376Y-92930902D01*
X153927000Y-92384813D01*
X153927000Y-91615187D01*
X153818376Y-91069098D01*
X153509041Y-90606146D01*
X153046089Y-90296811D01*
X152592805Y-90206647D01*
X158830278Y-90206647D01*
X158865763Y-90748070D01*
X159105741Y-91234701D01*
X159513677Y-91592454D01*
X160027467Y-91766864D01*
X160568890Y-91731379D01*
X161031718Y-91503139D01*
X161065467Y-92018070D01*
X161305445Y-92504701D01*
X161713381Y-92862454D01*
X162227171Y-93036864D01*
X162768594Y-93001379D01*
X163231423Y-92773139D01*
X163265172Y-93288070D01*
X163505150Y-93774701D01*
X163913086Y-94132454D01*
X164426876Y-94306864D01*
X164968299Y-94271379D01*
X165454930Y-94031401D01*
X165768644Y-93673681D01*
X175622849Y-93673681D01*
X175756082Y-93996131D01*
X176002571Y-94243051D01*
X176324789Y-94376847D01*
X176673681Y-94377151D01*
X176996131Y-94243918D01*
X177243051Y-93997429D01*
X177376847Y-93675211D01*
X177377151Y-93326319D01*
X177243918Y-93003869D01*
X176997429Y-92756949D01*
X176675211Y-92623153D01*
X176326319Y-92622849D01*
X176003869Y-92756082D01*
X175756949Y-93002571D01*
X175623153Y-93324789D01*
X175622849Y-93673681D01*
X165768644Y-93673681D01*
X165812683Y-93623465D01*
X165995313Y-93307143D01*
X166169723Y-92793353D01*
X166134238Y-92251930D01*
X165894260Y-91765299D01*
X165486324Y-91407546D01*
X164972534Y-91233136D01*
X164431111Y-91268621D01*
X163968282Y-91496860D01*
X163934533Y-90981930D01*
X163831837Y-90773681D01*
X170122849Y-90773681D01*
X170256082Y-91096131D01*
X170502571Y-91343051D01*
X170824789Y-91476847D01*
X171173681Y-91477151D01*
X171496131Y-91343918D01*
X171743051Y-91097429D01*
X171876847Y-90775211D01*
X171877151Y-90426319D01*
X171743918Y-90103869D01*
X171497429Y-89856949D01*
X171175211Y-89723153D01*
X170826319Y-89722849D01*
X170503869Y-89856082D01*
X170256949Y-90102571D01*
X170123153Y-90424789D01*
X170122849Y-90773681D01*
X163831837Y-90773681D01*
X163694555Y-90495299D01*
X163286619Y-90137546D01*
X162772829Y-89963136D01*
X162231406Y-89998621D01*
X161768578Y-90226860D01*
X161734829Y-89711930D01*
X161494851Y-89225299D01*
X161086915Y-88867546D01*
X160573125Y-88693136D01*
X160031702Y-88728621D01*
X159545071Y-88968598D01*
X159187318Y-89376535D01*
X159004688Y-89692857D01*
X158830278Y-90206647D01*
X152592805Y-90206647D01*
X152500000Y-90188187D01*
X151953911Y-90296811D01*
X151490959Y-90606146D01*
X151181624Y-91069098D01*
X151127000Y-91343711D01*
X151127000Y-88552606D01*
X152005925Y-87673681D01*
X164122849Y-87673681D01*
X164256082Y-87996131D01*
X164502571Y-88243051D01*
X164824789Y-88376847D01*
X165173681Y-88377151D01*
X165234754Y-88351916D01*
X182222693Y-88351916D01*
X182492655Y-89005274D01*
X182992096Y-89505588D01*
X183644982Y-89776690D01*
X184351916Y-89777307D01*
X185005274Y-89507345D01*
X185505588Y-89007904D01*
X185776690Y-88355018D01*
X185777307Y-87648084D01*
X185507345Y-86994726D01*
X185007904Y-86494412D01*
X184355018Y-86223310D01*
X183648084Y-86222693D01*
X182994726Y-86492655D01*
X182494412Y-86992096D01*
X182223310Y-87644982D01*
X182222693Y-88351916D01*
X165234754Y-88351916D01*
X165496131Y-88243918D01*
X165743051Y-87997429D01*
X165876847Y-87675211D01*
X165877151Y-87326319D01*
X165743918Y-87003869D01*
X165497429Y-86756949D01*
X165175211Y-86623153D01*
X164826319Y-86622849D01*
X164503869Y-86756082D01*
X164256949Y-87002571D01*
X164123153Y-87324789D01*
X164122849Y-87673681D01*
X152005925Y-87673681D01*
X153052606Y-86627000D01*
X163000000Y-86627000D01*
X163049410Y-86616994D01*
X163091035Y-86588553D01*
X163118315Y-86546159D01*
X163127000Y-86500000D01*
X163127000Y-86173681D01*
X166322849Y-86173681D01*
X166456082Y-86496131D01*
X166470556Y-86510630D01*
X166423153Y-86624789D01*
X166422849Y-86973681D01*
X166556082Y-87296131D01*
X166802571Y-87543051D01*
X167124789Y-87676847D01*
X167473681Y-87677151D01*
X167796131Y-87543918D01*
X168043051Y-87297429D01*
X168135958Y-87073681D01*
X173122849Y-87073681D01*
X173256082Y-87396131D01*
X173502571Y-87643051D01*
X173824789Y-87776847D01*
X174173681Y-87777151D01*
X174496131Y-87643918D01*
X174743051Y-87397429D01*
X174876847Y-87075211D01*
X174877151Y-86726319D01*
X174743918Y-86403869D01*
X174713783Y-86373681D01*
X177422849Y-86373681D01*
X177556082Y-86696131D01*
X177802571Y-86943051D01*
X178124789Y-87076847D01*
X178473681Y-87077151D01*
X178796131Y-86943918D01*
X179043051Y-86697429D01*
X179176847Y-86375211D01*
X179177151Y-86026319D01*
X179043918Y-85703869D01*
X178797429Y-85456949D01*
X178475211Y-85323153D01*
X178126319Y-85322849D01*
X177803869Y-85456082D01*
X177556949Y-85702571D01*
X177423153Y-86024789D01*
X177422849Y-86373681D01*
X174713783Y-86373681D01*
X174497429Y-86156949D01*
X174175211Y-86023153D01*
X173826319Y-86022849D01*
X173503869Y-86156082D01*
X173256949Y-86402571D01*
X173123153Y-86724789D01*
X173122849Y-87073681D01*
X168135958Y-87073681D01*
X168176847Y-86975211D01*
X168177151Y-86626319D01*
X168043918Y-86303869D01*
X168029444Y-86289370D01*
X168076847Y-86175211D01*
X168077151Y-85826319D01*
X167943918Y-85503869D01*
X167697429Y-85256949D01*
X167375211Y-85123153D01*
X167026319Y-85122849D01*
X166703869Y-85256082D01*
X166456949Y-85502571D01*
X166323153Y-85824789D01*
X166322849Y-86173681D01*
X163127000Y-86173681D01*
X163127000Y-83273681D01*
X169022849Y-83273681D01*
X169156082Y-83596131D01*
X169402571Y-83843051D01*
X169724789Y-83976847D01*
X170073681Y-83977151D01*
X170396131Y-83843918D01*
X170550052Y-83690265D01*
X170702571Y-83843051D01*
X171024789Y-83976847D01*
X171373681Y-83977151D01*
X171696131Y-83843918D01*
X171943051Y-83597429D01*
X172003879Y-83450936D01*
X181722606Y-83450936D01*
X182068528Y-84288132D01*
X182708499Y-84929221D01*
X183545090Y-85276604D01*
X184450936Y-85277394D01*
X185288132Y-84931472D01*
X185929221Y-84291501D01*
X186276604Y-83454910D01*
X186277394Y-82549064D01*
X185931472Y-81711868D01*
X185291501Y-81070779D01*
X184454910Y-80723396D01*
X183549064Y-80722606D01*
X182711868Y-81068528D01*
X182070779Y-81708499D01*
X181723396Y-82545090D01*
X181722606Y-83450936D01*
X172003879Y-83450936D01*
X172076847Y-83275211D01*
X172077151Y-82926319D01*
X171943918Y-82603869D01*
X171697429Y-82356949D01*
X171375211Y-82223153D01*
X171026319Y-82222849D01*
X170703869Y-82356082D01*
X170549948Y-82509735D01*
X170397429Y-82356949D01*
X170075211Y-82223153D01*
X169726319Y-82222849D01*
X169403869Y-82356082D01*
X169156949Y-82602571D01*
X169023153Y-82924789D01*
X169022849Y-83273681D01*
X163127000Y-83273681D01*
X163127000Y-81473681D01*
X166022849Y-81473681D01*
X166156082Y-81796131D01*
X166159735Y-81799790D01*
X166156949Y-81802571D01*
X166023153Y-82124789D01*
X166022849Y-82473681D01*
X166156082Y-82796131D01*
X166402571Y-83043051D01*
X166724789Y-83176847D01*
X167073681Y-83177151D01*
X167396131Y-83043918D01*
X167643051Y-82797429D01*
X167776847Y-82475211D01*
X167777151Y-82126319D01*
X167643918Y-81803869D01*
X167640265Y-81800210D01*
X167643051Y-81797429D01*
X167776847Y-81475211D01*
X167777022Y-81273681D01*
X171422849Y-81273681D01*
X171556082Y-81596131D01*
X171802571Y-81843051D01*
X172124789Y-81976847D01*
X172448230Y-81977129D01*
X172456082Y-81996131D01*
X172702571Y-82243051D01*
X173024789Y-82376847D01*
X173373681Y-82377151D01*
X173624098Y-82273681D01*
X178322849Y-82273681D01*
X178456082Y-82596131D01*
X178702571Y-82843051D01*
X179024789Y-82976847D01*
X179373681Y-82977151D01*
X179696131Y-82843918D01*
X179943051Y-82597429D01*
X180076847Y-82275211D01*
X180077151Y-81926319D01*
X179974126Y-81676977D01*
X180173681Y-81677151D01*
X180496131Y-81543918D01*
X180743051Y-81297429D01*
X180876847Y-80975211D01*
X180877151Y-80626319D01*
X180743918Y-80303869D01*
X180497429Y-80056949D01*
X180175211Y-79923153D01*
X179826319Y-79922849D01*
X179503869Y-80056082D01*
X179256949Y-80302571D01*
X179123153Y-80624789D01*
X179122849Y-80973681D01*
X179225874Y-81223023D01*
X179026319Y-81222849D01*
X178703869Y-81356082D01*
X178456949Y-81602571D01*
X178323153Y-81924789D01*
X178322849Y-82273681D01*
X173624098Y-82273681D01*
X173696131Y-82243918D01*
X173943051Y-81997429D01*
X174076847Y-81675211D01*
X174077151Y-81326319D01*
X173943918Y-81003869D01*
X173697429Y-80756949D01*
X173375211Y-80623153D01*
X173051770Y-80622871D01*
X173043918Y-80603869D01*
X172797429Y-80356949D01*
X172475211Y-80223153D01*
X172126319Y-80222849D01*
X171803869Y-80356082D01*
X171556949Y-80602571D01*
X171423153Y-80924789D01*
X171422849Y-81273681D01*
X167777022Y-81273681D01*
X167777151Y-81126319D01*
X167643918Y-80803869D01*
X167397429Y-80556949D01*
X167075211Y-80423153D01*
X166726319Y-80422849D01*
X166403869Y-80556082D01*
X166156949Y-80802571D01*
X166023153Y-81124789D01*
X166022849Y-81473681D01*
X163127000Y-81473681D01*
X163127000Y-79627000D01*
X166827518Y-79627000D01*
X166856082Y-79696131D01*
X167102571Y-79943051D01*
X167424789Y-80076847D01*
X167773681Y-80077151D01*
X168096131Y-79943918D01*
X168343051Y-79697429D01*
X168352912Y-79673681D01*
X186222849Y-79673681D01*
X186356082Y-79996131D01*
X186602571Y-80243051D01*
X186924789Y-80376847D01*
X187273681Y-80377151D01*
X187596131Y-80243918D01*
X187843051Y-79997429D01*
X187976847Y-79675211D01*
X187977151Y-79326319D01*
X187843918Y-79003869D01*
X187597429Y-78756949D01*
X187275211Y-78623153D01*
X186926319Y-78622849D01*
X186603869Y-78756082D01*
X186356949Y-79002571D01*
X186223153Y-79324789D01*
X186222849Y-79673681D01*
X168352912Y-79673681D01*
X168372296Y-79627000D01*
X169500000Y-79627000D01*
X169549410Y-79616994D01*
X169589803Y-79589803D01*
X172052606Y-77127000D01*
X174932652Y-77127000D01*
X174856949Y-77202571D01*
X174856949Y-77202571D01*
G37*
X174856949Y-77202571D02*
X174723153Y-77524789D01*
X174722849Y-77873681D01*
X174856082Y-78196131D01*
X175102571Y-78443051D01*
X175424789Y-78576847D01*
X175773681Y-78577151D01*
X176096131Y-78443918D01*
X176343051Y-78197429D01*
X176476847Y-77875211D01*
X176477151Y-77526319D01*
X176343918Y-77203869D01*
X176267183Y-77127000D01*
X189873000Y-77127000D01*
X189873000Y-86152420D01*
X189791501Y-86070779D01*
X188954910Y-85723396D01*
X188049064Y-85722606D01*
X187211868Y-86068528D01*
X186570779Y-86708499D01*
X186223396Y-87545090D01*
X186222606Y-88450936D01*
X186568528Y-89288132D01*
X187208499Y-89929221D01*
X188045090Y-90276604D01*
X188950936Y-90277394D01*
X189788132Y-89931472D01*
X189873000Y-89846752D01*
X189873000Y-94873000D01*
X185346706Y-94873000D01*
X185929221Y-94291501D01*
X186276604Y-93454910D01*
X186277394Y-92549064D01*
X185931472Y-91711868D01*
X185291501Y-91070779D01*
X184454910Y-90723396D01*
X183549064Y-90722606D01*
X182711868Y-91068528D01*
X182070779Y-91708499D01*
X181723396Y-92545090D01*
X181722606Y-93450936D01*
X182068528Y-94288132D01*
X182652376Y-94873000D01*
X151127000Y-94873000D01*
X151127000Y-92656289D01*
X151181624Y-92930902D01*
X151490959Y-93393854D01*
X151953911Y-93703189D01*
X152500000Y-93811813D01*
X153046089Y-93703189D01*
X153509041Y-93393854D01*
X153818376Y-92930902D01*
X153927000Y-92384813D01*
X153927000Y-91615187D01*
X153818376Y-91069098D01*
X153509041Y-90606146D01*
X153046089Y-90296811D01*
X152592805Y-90206647D01*
X158830278Y-90206647D01*
X158865763Y-90748070D01*
X159105741Y-91234701D01*
X159513677Y-91592454D01*
X160027467Y-91766864D01*
X160568890Y-91731379D01*
X161031718Y-91503139D01*
X161065467Y-92018070D01*
X161305445Y-92504701D01*
X161713381Y-92862454D01*
X162227171Y-93036864D01*
X162768594Y-93001379D01*
X163231423Y-92773139D01*
X163265172Y-93288070D01*
X163505150Y-93774701D01*
X163913086Y-94132454D01*
X164426876Y-94306864D01*
X164968299Y-94271379D01*
X165454930Y-94031401D01*
X165768644Y-93673681D01*
X175622849Y-93673681D01*
X175756082Y-93996131D01*
X176002571Y-94243051D01*
X176324789Y-94376847D01*
X176673681Y-94377151D01*
X176996131Y-94243918D01*
X177243051Y-93997429D01*
X177376847Y-93675211D01*
X177377151Y-93326319D01*
X177243918Y-93003869D01*
X176997429Y-92756949D01*
X176675211Y-92623153D01*
X176326319Y-92622849D01*
X176003869Y-92756082D01*
X175756949Y-93002571D01*
X175623153Y-93324789D01*
X175622849Y-93673681D01*
X165768644Y-93673681D01*
X165812683Y-93623465D01*
X165995313Y-93307143D01*
X166169723Y-92793353D01*
X166134238Y-92251930D01*
X165894260Y-91765299D01*
X165486324Y-91407546D01*
X164972534Y-91233136D01*
X164431111Y-91268621D01*
X163968282Y-91496860D01*
X163934533Y-90981930D01*
X163831837Y-90773681D01*
X170122849Y-90773681D01*
X170256082Y-91096131D01*
X170502571Y-91343051D01*
X170824789Y-91476847D01*
X171173681Y-91477151D01*
X171496131Y-91343918D01*
X171743051Y-91097429D01*
X171876847Y-90775211D01*
X171877151Y-90426319D01*
X171743918Y-90103869D01*
X171497429Y-89856949D01*
X171175211Y-89723153D01*
X170826319Y-89722849D01*
X170503869Y-89856082D01*
X170256949Y-90102571D01*
X170123153Y-90424789D01*
X170122849Y-90773681D01*
X163831837Y-90773681D01*
X163694555Y-90495299D01*
X163286619Y-90137546D01*
X162772829Y-89963136D01*
X162231406Y-89998621D01*
X161768578Y-90226860D01*
X161734829Y-89711930D01*
X161494851Y-89225299D01*
X161086915Y-88867546D01*
X160573125Y-88693136D01*
X160031702Y-88728621D01*
X159545071Y-88968598D01*
X159187318Y-89376535D01*
X159004688Y-89692857D01*
X158830278Y-90206647D01*
X152592805Y-90206647D01*
X152500000Y-90188187D01*
X151953911Y-90296811D01*
X151490959Y-90606146D01*
X151181624Y-91069098D01*
X151127000Y-91343711D01*
X151127000Y-88552606D01*
X152005925Y-87673681D01*
X164122849Y-87673681D01*
X164256082Y-87996131D01*
X164502571Y-88243051D01*
X164824789Y-88376847D01*
X165173681Y-88377151D01*
X165234754Y-88351916D01*
X182222693Y-88351916D01*
X182492655Y-89005274D01*
X182992096Y-89505588D01*
X183644982Y-89776690D01*
X184351916Y-89777307D01*
X185005274Y-89507345D01*
X185505588Y-89007904D01*
X185776690Y-88355018D01*
X185777307Y-87648084D01*
X185507345Y-86994726D01*
X185007904Y-86494412D01*
X184355018Y-86223310D01*
X183648084Y-86222693D01*
X182994726Y-86492655D01*
X182494412Y-86992096D01*
X182223310Y-87644982D01*
X182222693Y-88351916D01*
X165234754Y-88351916D01*
X165496131Y-88243918D01*
X165743051Y-87997429D01*
X165876847Y-87675211D01*
X165877151Y-87326319D01*
X165743918Y-87003869D01*
X165497429Y-86756949D01*
X165175211Y-86623153D01*
X164826319Y-86622849D01*
X164503869Y-86756082D01*
X164256949Y-87002571D01*
X164123153Y-87324789D01*
X164122849Y-87673681D01*
X152005925Y-87673681D01*
X153052606Y-86627000D01*
X163000000Y-86627000D01*
X163049410Y-86616994D01*
X163091035Y-86588553D01*
X163118315Y-86546159D01*
X163127000Y-86500000D01*
X163127000Y-86173681D01*
X166322849Y-86173681D01*
X166456082Y-86496131D01*
X166470556Y-86510630D01*
X166423153Y-86624789D01*
X166422849Y-86973681D01*
X166556082Y-87296131D01*
X166802571Y-87543051D01*
X167124789Y-87676847D01*
X167473681Y-87677151D01*
X167796131Y-87543918D01*
X168043051Y-87297429D01*
X168135958Y-87073681D01*
X173122849Y-87073681D01*
X173256082Y-87396131D01*
X173502571Y-87643051D01*
X173824789Y-87776847D01*
X174173681Y-87777151D01*
X174496131Y-87643918D01*
X174743051Y-87397429D01*
X174876847Y-87075211D01*
X174877151Y-86726319D01*
X174743918Y-86403869D01*
X174713783Y-86373681D01*
X177422849Y-86373681D01*
X177556082Y-86696131D01*
X177802571Y-86943051D01*
X178124789Y-87076847D01*
X178473681Y-87077151D01*
X178796131Y-86943918D01*
X179043051Y-86697429D01*
X179176847Y-86375211D01*
X179177151Y-86026319D01*
X179043918Y-85703869D01*
X178797429Y-85456949D01*
X178475211Y-85323153D01*
X178126319Y-85322849D01*
X177803869Y-85456082D01*
X177556949Y-85702571D01*
X177423153Y-86024789D01*
X177422849Y-86373681D01*
X174713783Y-86373681D01*
X174497429Y-86156949D01*
X174175211Y-86023153D01*
X173826319Y-86022849D01*
X173503869Y-86156082D01*
X173256949Y-86402571D01*
X173123153Y-86724789D01*
X173122849Y-87073681D01*
X168135958Y-87073681D01*
X168176847Y-86975211D01*
X168177151Y-86626319D01*
X168043918Y-86303869D01*
X168029444Y-86289370D01*
X168076847Y-86175211D01*
X168077151Y-85826319D01*
X167943918Y-85503869D01*
X167697429Y-85256949D01*
X167375211Y-85123153D01*
X167026319Y-85122849D01*
X166703869Y-85256082D01*
X166456949Y-85502571D01*
X166323153Y-85824789D01*
X166322849Y-86173681D01*
X163127000Y-86173681D01*
X163127000Y-83273681D01*
X169022849Y-83273681D01*
X169156082Y-83596131D01*
X169402571Y-83843051D01*
X169724789Y-83976847D01*
X170073681Y-83977151D01*
X170396131Y-83843918D01*
X170550052Y-83690265D01*
X170702571Y-83843051D01*
X171024789Y-83976847D01*
X171373681Y-83977151D01*
X171696131Y-83843918D01*
X171943051Y-83597429D01*
X172003879Y-83450936D01*
X181722606Y-83450936D01*
X182068528Y-84288132D01*
X182708499Y-84929221D01*
X183545090Y-85276604D01*
X184450936Y-85277394D01*
X185288132Y-84931472D01*
X185929221Y-84291501D01*
X186276604Y-83454910D01*
X186277394Y-82549064D01*
X185931472Y-81711868D01*
X185291501Y-81070779D01*
X184454910Y-80723396D01*
X183549064Y-80722606D01*
X182711868Y-81068528D01*
X182070779Y-81708499D01*
X181723396Y-82545090D01*
X181722606Y-83450936D01*
X172003879Y-83450936D01*
X172076847Y-83275211D01*
X172077151Y-82926319D01*
X171943918Y-82603869D01*
X171697429Y-82356949D01*
X171375211Y-82223153D01*
X171026319Y-82222849D01*
X170703869Y-82356082D01*
X170549948Y-82509735D01*
X170397429Y-82356949D01*
X170075211Y-82223153D01*
X169726319Y-82222849D01*
X169403869Y-82356082D01*
X169156949Y-82602571D01*
X169023153Y-82924789D01*
X169022849Y-83273681D01*
X163127000Y-83273681D01*
X163127000Y-81473681D01*
X166022849Y-81473681D01*
X166156082Y-81796131D01*
X166159735Y-81799790D01*
X166156949Y-81802571D01*
X166023153Y-82124789D01*
X166022849Y-82473681D01*
X166156082Y-82796131D01*
X166402571Y-83043051D01*
X166724789Y-83176847D01*
X167073681Y-83177151D01*
X167396131Y-83043918D01*
X167643051Y-82797429D01*
X167776847Y-82475211D01*
X167777151Y-82126319D01*
X167643918Y-81803869D01*
X167640265Y-81800210D01*
X167643051Y-81797429D01*
X167776847Y-81475211D01*
X167777022Y-81273681D01*
X171422849Y-81273681D01*
X171556082Y-81596131D01*
X171802571Y-81843051D01*
X172124789Y-81976847D01*
X172448230Y-81977129D01*
X172456082Y-81996131D01*
X172702571Y-82243051D01*
X173024789Y-82376847D01*
X173373681Y-82377151D01*
X173624098Y-82273681D01*
X178322849Y-82273681D01*
X178456082Y-82596131D01*
X178702571Y-82843051D01*
X179024789Y-82976847D01*
X179373681Y-82977151D01*
X179696131Y-82843918D01*
X179943051Y-82597429D01*
X180076847Y-82275211D01*
X180077151Y-81926319D01*
X179974126Y-81676977D01*
X180173681Y-81677151D01*
X180496131Y-81543918D01*
X180743051Y-81297429D01*
X180876847Y-80975211D01*
X180877151Y-80626319D01*
X180743918Y-80303869D01*
X180497429Y-80056949D01*
X180175211Y-79923153D01*
X179826319Y-79922849D01*
X179503869Y-80056082D01*
X179256949Y-80302571D01*
X179123153Y-80624789D01*
X179122849Y-80973681D01*
X179225874Y-81223023D01*
X179026319Y-81222849D01*
X178703869Y-81356082D01*
X178456949Y-81602571D01*
X178323153Y-81924789D01*
X178322849Y-82273681D01*
X173624098Y-82273681D01*
X173696131Y-82243918D01*
X173943051Y-81997429D01*
X174076847Y-81675211D01*
X174077151Y-81326319D01*
X173943918Y-81003869D01*
X173697429Y-80756949D01*
X173375211Y-80623153D01*
X173051770Y-80622871D01*
X173043918Y-80603869D01*
X172797429Y-80356949D01*
X172475211Y-80223153D01*
X172126319Y-80222849D01*
X171803869Y-80356082D01*
X171556949Y-80602571D01*
X171423153Y-80924789D01*
X171422849Y-81273681D01*
X167777022Y-81273681D01*
X167777151Y-81126319D01*
X167643918Y-80803869D01*
X167397429Y-80556949D01*
X167075211Y-80423153D01*
X166726319Y-80422849D01*
X166403869Y-80556082D01*
X166156949Y-80802571D01*
X166023153Y-81124789D01*
X166022849Y-81473681D01*
X163127000Y-81473681D01*
X163127000Y-79627000D01*
X166827518Y-79627000D01*
X166856082Y-79696131D01*
X167102571Y-79943051D01*
X167424789Y-80076847D01*
X167773681Y-80077151D01*
X168096131Y-79943918D01*
X168343051Y-79697429D01*
X168352912Y-79673681D01*
X186222849Y-79673681D01*
X186356082Y-79996131D01*
X186602571Y-80243051D01*
X186924789Y-80376847D01*
X187273681Y-80377151D01*
X187596131Y-80243918D01*
X187843051Y-79997429D01*
X187976847Y-79675211D01*
X187977151Y-79326319D01*
X187843918Y-79003869D01*
X187597429Y-78756949D01*
X187275211Y-78623153D01*
X186926319Y-78622849D01*
X186603869Y-78756082D01*
X186356949Y-79002571D01*
X186223153Y-79324789D01*
X186222849Y-79673681D01*
X168352912Y-79673681D01*
X168372296Y-79627000D01*
X169500000Y-79627000D01*
X169549410Y-79616994D01*
X169589803Y-79589803D01*
X172052606Y-77127000D01*
X174932652Y-77127000D01*
X174856949Y-77202571D01*
G36*
X189873000Y-64123000D02*
X187077206Y-64123000D01*
X183708909Y-57627000D01*
X189873000Y-57627000D01*
X189873000Y-64123000D01*
X189873000Y-64123000D01*
G37*
X189873000Y-64123000D02*
X187077206Y-64123000D01*
X183708909Y-57627000D01*
X189873000Y-57627000D01*
X189873000Y-64123000D01*
M02*
