G04 #@! TF.FileFunction,Copper,L1,Top,Signal*
%FSLAX46Y46*%
G04 Gerber Fmt 4.6, Leading zero omitted, Abs format (unit mm)*
G04 Created by KiCad (PCBNEW 4.0.4+e1-6308~48~ubuntu14.04.1-stable) date Sun Nov 27 13:15:31 2016*
%MOMM*%
%LPD*%
G01*
G04 APERTURE LIST*
%ADD10C,0.100000*%
%ADD11R,1.600000X1.000000*%
%ADD12R,1.000000X1.600000*%
%ADD13O,1.800000X2.500000*%
%ADD14R,0.700000X1.300000*%
%ADD15R,0.600000X1.200000*%
%ADD16R,1.200000X0.600000*%
%ADD17R,2.032000X3.657600*%
%ADD18R,2.032000X1.016000*%
%ADD19R,0.600000X1.550000*%
%ADD20R,1.175000X1.175000*%
%ADD21C,1.727200*%
%ADD22R,1.400000X1.200000*%
%ADD23R,0.750000X0.800000*%
%ADD24R,0.800000X0.750000*%
%ADD25R,1.000000X1.250000*%
%ADD26C,3.500000*%
%ADD27C,2.500000*%
%ADD28R,0.900000X0.500000*%
%ADD29R,0.500000X0.900000*%
%ADD30C,0.700000*%
%ADD31C,0.320000*%
%ADD32C,0.240000*%
%ADD33C,0.160000*%
%ADD34C,0.480000*%
%ADD35C,1.000000*%
%ADD36C,0.254000*%
G04 APERTURE END LIST*
D10*
G36*
X132568911Y-60942820D02*
X133368911Y-59557180D01*
X134234937Y-60057180D01*
X133434937Y-61442820D01*
X132568911Y-60942820D01*
X132568911Y-60942820D01*
G37*
G36*
X135166987Y-62442820D02*
X135966987Y-61057180D01*
X136833013Y-61557180D01*
X136033013Y-62942820D01*
X135166987Y-62442820D01*
X135166987Y-62442820D01*
G37*
D11*
X137000000Y-70000000D03*
X137000000Y-73000000D03*
X140000000Y-70000000D03*
X140000000Y-73000000D03*
D10*
G36*
X131068911Y-63442820D02*
X131868911Y-62057180D01*
X132734937Y-62557180D01*
X131934937Y-63942820D01*
X131068911Y-63442820D01*
X131068911Y-63442820D01*
G37*
G36*
X133666987Y-64942820D02*
X134466987Y-63557180D01*
X135333013Y-64057180D01*
X134533013Y-65442820D01*
X133666987Y-64942820D01*
X133666987Y-64942820D01*
G37*
D11*
X152000000Y-70000000D03*
X152000000Y-73000000D03*
D12*
X152000000Y-65250000D03*
X155000000Y-65250000D03*
X155000000Y-62500000D03*
X152000000Y-62500000D03*
D11*
X181000000Y-70500000D03*
X181000000Y-73500000D03*
X178000000Y-70500000D03*
X178000000Y-73500000D03*
X166000000Y-70500000D03*
X166000000Y-73500000D03*
D12*
X166000000Y-65200000D03*
X163000000Y-65200000D03*
X163000000Y-62400000D03*
X166000000Y-62400000D03*
D13*
X145500000Y-92000000D03*
X149000000Y-92000000D03*
X152500000Y-92000000D03*
X162500000Y-54000000D03*
X159000000Y-54000000D03*
X155500000Y-54000000D03*
D14*
X151100000Y-77500000D03*
X153000000Y-77500000D03*
X166950000Y-77500000D03*
X165050000Y-77500000D03*
D15*
X169950000Y-88200000D03*
X170750000Y-88200000D03*
X171550000Y-88200000D03*
X172350000Y-88200000D03*
X173150000Y-88200000D03*
X173950000Y-88200000D03*
X174750000Y-88200000D03*
X175550000Y-88200000D03*
D16*
X177000000Y-86750000D03*
X177000000Y-85950000D03*
X177000000Y-85150000D03*
X177000000Y-84350000D03*
X177000000Y-83550000D03*
X177000000Y-82750000D03*
X177000000Y-81950000D03*
X177000000Y-81150000D03*
D15*
X175550000Y-79700000D03*
X174750000Y-79700000D03*
X173950000Y-79700000D03*
X173150000Y-79700000D03*
X172350000Y-79700000D03*
X171550000Y-79700000D03*
X170750000Y-79700000D03*
X169950000Y-79700000D03*
D16*
X168500000Y-81150000D03*
X168500000Y-81950000D03*
X168500000Y-82750000D03*
X168500000Y-83550000D03*
X168500000Y-84350000D03*
X168500000Y-85150000D03*
X168500000Y-85950000D03*
X168500000Y-86750000D03*
D17*
X139718871Y-82810213D03*
D18*
X146322871Y-82810213D03*
X146322871Y-80524213D03*
X146322871Y-85096213D03*
D19*
X156730000Y-84112500D03*
X158000000Y-84112500D03*
X159270000Y-84112500D03*
X160540000Y-84112500D03*
X160540000Y-78712500D03*
X159270000Y-78712500D03*
X158000000Y-78712500D03*
X156730000Y-78712500D03*
D20*
X159222500Y-80825000D03*
X158047500Y-80825000D03*
X159222500Y-82000000D03*
X158047500Y-82000000D03*
D10*
G36*
X158340491Y-90271682D02*
X156844691Y-89408082D01*
X157860691Y-87648318D01*
X159356491Y-88511918D01*
X158340491Y-90271682D01*
X158340491Y-90271682D01*
G37*
D21*
X160224096Y-90361982D02*
X160376496Y-90098018D01*
X162423800Y-91631982D02*
X162576200Y-91368018D01*
X164623505Y-92901982D02*
X164775905Y-92638018D01*
D22*
X171000000Y-93500000D03*
X173200000Y-93500000D03*
X173200000Y-91800000D03*
X171000000Y-91800000D03*
D23*
X168500000Y-93500000D03*
X168500000Y-92000000D03*
X175500000Y-92000000D03*
X175500000Y-93500000D03*
X179000000Y-79250000D03*
X179000000Y-80750000D03*
X166000000Y-89000000D03*
X166000000Y-87500000D03*
X154500000Y-80500000D03*
X154500000Y-82000000D03*
D24*
X159250000Y-76750000D03*
X160750000Y-76750000D03*
D10*
G36*
X186082051Y-61807180D02*
X186882051Y-63192820D01*
X186016025Y-63692820D01*
X185216025Y-62307180D01*
X186082051Y-61807180D01*
X186082051Y-61807180D01*
G37*
G36*
X183483975Y-63307180D02*
X184283975Y-64692820D01*
X183417949Y-65192820D01*
X182617949Y-63807180D01*
X183483975Y-63307180D01*
X183483975Y-63307180D01*
G37*
G36*
X184582051Y-59307180D02*
X185382051Y-60692820D01*
X184516025Y-61192820D01*
X183716025Y-59807180D01*
X184582051Y-59307180D01*
X184582051Y-59307180D01*
G37*
G36*
X181983975Y-60807180D02*
X182783975Y-62192820D01*
X181917949Y-62692820D01*
X181117949Y-61307180D01*
X181983975Y-60807180D01*
X181983975Y-60807180D01*
G37*
D24*
X180750000Y-89250000D03*
X179250000Y-89250000D03*
D23*
X179250000Y-87750000D03*
X179250000Y-86250000D03*
X180750000Y-84500000D03*
X180750000Y-83000000D03*
D25*
X181000000Y-91000000D03*
X179000000Y-91000000D03*
X184000000Y-79500000D03*
X186000000Y-79500000D03*
D26*
X188500000Y-88000000D03*
X184000000Y-93000000D03*
X184000000Y-83000000D03*
D27*
X184000000Y-88000000D03*
D28*
X180750000Y-87750000D03*
X180750000Y-86250000D03*
X179250000Y-84500000D03*
X179250000Y-83000000D03*
D29*
X152750000Y-79250000D03*
X151250000Y-79250000D03*
X165250000Y-79250000D03*
X166750000Y-79250000D03*
X173250000Y-77750000D03*
X174750000Y-77750000D03*
X172000000Y-77750000D03*
X170500000Y-77750000D03*
D23*
X149000000Y-80250000D03*
X149000000Y-81750000D03*
X149000000Y-83500000D03*
X149000000Y-85000000D03*
D10*
G36*
X149994880Y-58155588D02*
X145864880Y-65308958D01*
X143881682Y-64163958D01*
X148011682Y-57010588D01*
X149994880Y-58155588D01*
X149994880Y-58155588D01*
G37*
G36*
X141741658Y-53390588D02*
X137611658Y-60543958D01*
X133099666Y-57938958D01*
X137229666Y-50785588D01*
X141741658Y-53390588D01*
X141741658Y-53390588D01*
G37*
G36*
X172135120Y-65261685D02*
X168005120Y-58108315D01*
X169988318Y-56963315D01*
X174118318Y-64116685D01*
X172135120Y-65261685D01*
X172135120Y-65261685D01*
G37*
G36*
X180388342Y-60496685D02*
X176258342Y-53343315D01*
X180770334Y-50738315D01*
X184900334Y-57891685D01*
X180388342Y-60496685D01*
X180388342Y-60496685D01*
G37*
D12*
X152000000Y-59800000D03*
X155000000Y-59800000D03*
X165900000Y-59600000D03*
X162900000Y-59600000D03*
D30*
X135000000Y-65600000D03*
X135800000Y-63500000D03*
X135800000Y-64300000D03*
X135400000Y-65000000D03*
X136500000Y-63200000D03*
X137300000Y-61800000D03*
X136900000Y-62500000D03*
X182100000Y-63500000D03*
X183100000Y-65500000D03*
X182300000Y-64200000D03*
X182700000Y-64800000D03*
X180800000Y-61600000D03*
X181600000Y-63000000D03*
X181200000Y-62300000D03*
X176500000Y-93500000D03*
X167600000Y-79200000D03*
X151300000Y-80300000D03*
X175600000Y-77700000D03*
X169700000Y-77800000D03*
X187100000Y-79500000D03*
X180000000Y-80800000D03*
X179200000Y-82100000D03*
X156950000Y-81950000D03*
X156950000Y-80850000D03*
X160300000Y-80900000D03*
X160300000Y-81900000D03*
X157400000Y-81400000D03*
X158600000Y-81400000D03*
X159800000Y-81400000D03*
X136200000Y-74100000D03*
X141400000Y-73700000D03*
X141400000Y-73000000D03*
X137800000Y-74100000D03*
X138500000Y-73800000D03*
X139200000Y-74100000D03*
X140800000Y-74100000D03*
X137000000Y-74100000D03*
X140000000Y-74100000D03*
X138500000Y-73000000D03*
X152700000Y-74100000D03*
X151300000Y-74100000D03*
X152000000Y-74100000D03*
X150600000Y-72200000D03*
X150600000Y-73800000D03*
X150600000Y-73000000D03*
X165000000Y-87500000D03*
X167200000Y-86000000D03*
X167300000Y-86800000D03*
X150000000Y-85000000D03*
X150000000Y-81700000D03*
X159300000Y-85500000D03*
X154500000Y-83000000D03*
X161700000Y-77400000D03*
X161700000Y-76000000D03*
X161700000Y-76700000D03*
X165300000Y-74600000D03*
X166700000Y-74600000D03*
X166000000Y-74600000D03*
X182400000Y-74200000D03*
X181800000Y-74600000D03*
X176600000Y-74200000D03*
X177200000Y-74600000D03*
X180200000Y-74600000D03*
X179500000Y-74300000D03*
X178800000Y-74600000D03*
X182400000Y-73500000D03*
X181000000Y-74600000D03*
X178000000Y-74600000D03*
X179500000Y-73500000D03*
X176600000Y-73500000D03*
X167400000Y-74300000D03*
X167400000Y-72700000D03*
X167400000Y-73500000D03*
X173600000Y-75600000D03*
X172800000Y-75600000D03*
X172000000Y-75600000D03*
X171200000Y-75600000D03*
X170400000Y-75600000D03*
X144400000Y-75600000D03*
X145200000Y-75600000D03*
X146000000Y-75600000D03*
X146800000Y-75600000D03*
X147600000Y-75600000D03*
X171000000Y-90600000D03*
X144400000Y-74800000D03*
X145200000Y-74800000D03*
X147600000Y-74800000D03*
X146800000Y-74800000D03*
X146000000Y-74800000D03*
X170400000Y-74800000D03*
X171200000Y-74800000D03*
X173600000Y-74800000D03*
X172800000Y-74800000D03*
X172000000Y-74800000D03*
X158047500Y-82000000D03*
X159222500Y-82000000D03*
X159222500Y-80825000D03*
X158047500Y-80825000D03*
X154500000Y-84100000D03*
X153500000Y-80500000D03*
X150000000Y-80200000D03*
X154500000Y-79500000D03*
X158400000Y-76000000D03*
X158280693Y-76677531D03*
X178300000Y-87800000D03*
X177450000Y-79250000D03*
X173200000Y-89400000D03*
X166000000Y-90000000D03*
X169900000Y-89300000D03*
X153300000Y-86900000D03*
X130700000Y-63100000D03*
X132000000Y-61300000D03*
X131500000Y-61800000D03*
X131100000Y-62500000D03*
X132200000Y-60600000D03*
X133000000Y-59300000D03*
X132600000Y-60000000D03*
X185100000Y-59200000D03*
X185900000Y-61100000D03*
X185900000Y-60400000D03*
X185500000Y-59800000D03*
X187400000Y-62900000D03*
X186500000Y-61500000D03*
X186900000Y-62200000D03*
X143600000Y-68400000D03*
X144400000Y-68400000D03*
X144400000Y-68400000D03*
X145200000Y-68400000D03*
X146000000Y-68400000D03*
X146000000Y-68400000D03*
X146800000Y-68400000D03*
X147600000Y-68400000D03*
X148400000Y-68400000D03*
X143600000Y-69200000D03*
X144400000Y-69200000D03*
X145200000Y-69200000D03*
X148400000Y-69200000D03*
X147600000Y-69200000D03*
X146800000Y-69200000D03*
X146000000Y-69200000D03*
X169600000Y-68400000D03*
X170400000Y-68400000D03*
X171200000Y-68400000D03*
X172000000Y-68400000D03*
X172800000Y-68400000D03*
X173600000Y-68400000D03*
X174400000Y-68400000D03*
X169600000Y-69200000D03*
X170400000Y-69200000D03*
X171200000Y-69200000D03*
X174400000Y-69200000D03*
X173600000Y-69200000D03*
X172800000Y-69200000D03*
X172000000Y-69200000D03*
X149100000Y-77000000D03*
X168900000Y-76700000D03*
X173200000Y-81500000D03*
X166900000Y-82300000D03*
X166900000Y-81300000D03*
X172300000Y-81100000D03*
X169900000Y-83100000D03*
X171200000Y-83100000D03*
X174000000Y-86900000D03*
X178300000Y-86200000D03*
D31*
X171000000Y-93500000D02*
X168750000Y-93500000D01*
X168750000Y-93500000D02*
X168500000Y-93750000D01*
X166800000Y-93300000D02*
X167250000Y-93750000D01*
X167250000Y-93750000D02*
X168500000Y-93750000D01*
X166800000Y-91200000D02*
X166800000Y-93300000D01*
X167500000Y-90500000D02*
X166800000Y-91200000D01*
X170000000Y-90500000D02*
X167500000Y-90500000D01*
X170750000Y-89750000D02*
X170000000Y-90500000D01*
X170750000Y-88200000D02*
X170750000Y-89750000D01*
D32*
X135400000Y-65000000D02*
X135400000Y-65200000D01*
X135400000Y-65200000D02*
X135000000Y-65600000D01*
X135800000Y-64300000D02*
X135800000Y-63500000D01*
X135400000Y-65000000D02*
X135400000Y-64700000D01*
X135400000Y-64700000D02*
X135800000Y-64300000D01*
X134500000Y-64500000D02*
X134900000Y-64500000D01*
X134900000Y-64500000D02*
X135400000Y-65000000D01*
X136900000Y-62500000D02*
X136900000Y-62800000D01*
X136900000Y-62800000D02*
X136500000Y-63200000D01*
X136900000Y-62500000D02*
X136900000Y-62200000D01*
X136900000Y-62200000D02*
X137300000Y-61800000D01*
X136000000Y-62000000D02*
X136400000Y-62000000D01*
X136400000Y-62000000D02*
X136900000Y-62500000D01*
X182300000Y-64200000D02*
X182300000Y-63700000D01*
X182300000Y-63700000D02*
X182100000Y-63500000D01*
X182700000Y-64800000D02*
X182700000Y-65100000D01*
X182700000Y-65100000D02*
X183100000Y-65500000D01*
X182700000Y-64800000D02*
X182700000Y-64600000D01*
X182700000Y-64600000D02*
X182300000Y-64200000D01*
X183450962Y-64250000D02*
X183250000Y-64250000D01*
X183250000Y-64250000D02*
X182700000Y-64800000D01*
X181200000Y-62300000D02*
X181200000Y-62000000D01*
X181200000Y-62000000D02*
X180800000Y-61600000D01*
X181200000Y-62300000D02*
X181200000Y-62600000D01*
X181200000Y-62600000D02*
X181600000Y-63000000D01*
X181950962Y-61750000D02*
X181750000Y-61750000D01*
X181750000Y-61750000D02*
X181200000Y-62300000D01*
X175500000Y-93500000D02*
X176500000Y-93500000D01*
X166750000Y-79250000D02*
X167550000Y-79250000D01*
X167550000Y-79250000D02*
X167600000Y-79200000D01*
X151250000Y-79250000D02*
X151250000Y-80250000D01*
X151250000Y-80250000D02*
X151300000Y-80300000D01*
X174750000Y-77750000D02*
X175550000Y-77750000D01*
X175550000Y-77750000D02*
X175600000Y-77700000D01*
X170500000Y-77750000D02*
X169750000Y-77750000D01*
X169750000Y-77750000D02*
X169700000Y-77800000D01*
X186000000Y-79500000D02*
X187100000Y-79500000D01*
X179000000Y-80750000D02*
X179950000Y-80750000D01*
X179950000Y-80750000D02*
X180000000Y-80800000D01*
X179250000Y-83000000D02*
X179250000Y-82150000D01*
X179250000Y-82150000D02*
X179200000Y-82100000D01*
X177000000Y-81150000D02*
X177840000Y-81150000D01*
X177840000Y-81150000D02*
X178240000Y-80750000D01*
X178240000Y-80750000D02*
X179000000Y-80750000D01*
X179250000Y-83000000D02*
X180750000Y-83000000D01*
D33*
X157400000Y-81400000D02*
X157400000Y-81500000D01*
X157400000Y-81500000D02*
X156950000Y-81950000D01*
X157400000Y-81400000D02*
X157400000Y-81300000D01*
X157400000Y-81300000D02*
X156950000Y-80850000D01*
X159800000Y-81400000D02*
X160300000Y-80900000D01*
X159800000Y-81400000D02*
X160300000Y-81900000D01*
X158047500Y-82000000D02*
X158000000Y-82000000D01*
X158000000Y-82000000D02*
X157400000Y-81400000D01*
D34*
X137000000Y-73000000D02*
X135600000Y-73000000D01*
X137000000Y-74100000D02*
X136200000Y-74100000D01*
X141400000Y-73000000D02*
X141400000Y-73700000D01*
X140000000Y-73000000D02*
X141400000Y-73000000D01*
X137000000Y-74100000D02*
X137800000Y-74100000D01*
X139200000Y-74100000D02*
X138800000Y-74100000D01*
X138800000Y-74100000D02*
X138500000Y-73800000D01*
X140000000Y-74100000D02*
X139200000Y-74100000D01*
X140000000Y-74100000D02*
X140800000Y-74100000D01*
X137000000Y-73000000D02*
X137000000Y-74100000D01*
X140000000Y-73000000D02*
X140000000Y-74100000D01*
X137000000Y-73000000D02*
X138500000Y-73000000D01*
X140000000Y-73000000D02*
X138500000Y-73000000D01*
X152000000Y-74100000D02*
X152700000Y-74100000D01*
X152000000Y-74100000D02*
X151300000Y-74100000D01*
X152000000Y-73000000D02*
X152000000Y-74100000D01*
X150600000Y-73000000D02*
X150600000Y-72200000D01*
X150600000Y-73000000D02*
X150600000Y-73800000D01*
X152000000Y-73000000D02*
X150600000Y-73000000D01*
X166000000Y-87500000D02*
X165000000Y-87500000D01*
X168500000Y-85950000D02*
X167250000Y-85950000D01*
X167250000Y-85950000D02*
X167200000Y-86000000D01*
X168500000Y-86750000D02*
X167350000Y-86750000D01*
X167350000Y-86750000D02*
X167300000Y-86800000D01*
X149000000Y-85000000D02*
X150000000Y-85000000D01*
X149000000Y-81750000D02*
X149950000Y-81750000D01*
X149950000Y-81750000D02*
X150000000Y-81700000D01*
X149000000Y-85000000D02*
X146419084Y-85000000D01*
X146419084Y-85000000D02*
X146322871Y-85096213D01*
X159270000Y-84112500D02*
X159270000Y-85470000D01*
X159270000Y-85470000D02*
X159300000Y-85500000D01*
X154500000Y-82000000D02*
X154500000Y-83000000D01*
X161700000Y-76700000D02*
X161700000Y-77400000D01*
X161700000Y-76700000D02*
X161700000Y-76000000D01*
X160750000Y-76750000D02*
X161650000Y-76750000D01*
X161650000Y-76750000D02*
X161700000Y-76700000D01*
X166000000Y-74600000D02*
X165300000Y-74600000D01*
X166000000Y-74600000D02*
X166700000Y-74600000D01*
X166000000Y-73500000D02*
X166000000Y-74600000D01*
X181800000Y-74600000D02*
X182000000Y-74600000D01*
X182000000Y-74600000D02*
X182400000Y-74200000D01*
X181000000Y-74600000D02*
X181800000Y-74600000D01*
X177200000Y-74600000D02*
X177000000Y-74600000D01*
X177000000Y-74600000D02*
X176600000Y-74200000D01*
X178000000Y-74600000D02*
X177200000Y-74600000D01*
X181000000Y-74600000D02*
X180200000Y-74600000D01*
X178800000Y-74600000D02*
X179200000Y-74600000D01*
X179200000Y-74600000D02*
X179500000Y-74300000D01*
X178000000Y-74600000D02*
X178800000Y-74600000D01*
X181000000Y-73500000D02*
X182400000Y-73500000D01*
X181000000Y-73500000D02*
X181000000Y-74600000D01*
X178000000Y-73500000D02*
X178000000Y-74600000D01*
X179500000Y-73500000D02*
X181000000Y-73500000D01*
X178000000Y-73500000D02*
X179500000Y-73500000D01*
X178000000Y-73500000D02*
X176600000Y-73500000D01*
X167400000Y-73500000D02*
X167400000Y-74300000D01*
X167400000Y-73500000D02*
X167400000Y-72700000D01*
X166000000Y-73500000D02*
X167400000Y-73500000D01*
D31*
X173200000Y-93500000D02*
X175250000Y-93500000D01*
X175250000Y-93500000D02*
X175500000Y-93750000D01*
X171000000Y-91800000D02*
X168550000Y-91800000D01*
X168550000Y-91800000D02*
X168500000Y-91750000D01*
X171000000Y-91800000D02*
X171000000Y-90600000D01*
X173200000Y-91800000D02*
X175450000Y-91800000D01*
X175450000Y-91800000D02*
X175500000Y-91750000D01*
X171550000Y-88200000D02*
X171550000Y-89120000D01*
X171550000Y-89120000D02*
X173200000Y-90770000D01*
X173200000Y-90770000D02*
X173200000Y-91800000D01*
D34*
X156730000Y-84112500D02*
X154512500Y-84112500D01*
X154512500Y-84112500D02*
X154500000Y-84100000D01*
X154500000Y-80500000D02*
X153500000Y-80500000D01*
X149000000Y-80250000D02*
X149950000Y-80250000D01*
X149950000Y-80250000D02*
X150000000Y-80200000D01*
X149000000Y-80250000D02*
X148145000Y-80250000D01*
X148145000Y-80250000D02*
X147870787Y-80524213D01*
X147870787Y-80524213D02*
X146322871Y-80524213D01*
X154500000Y-79500000D02*
X155287500Y-78712500D01*
X155287500Y-78712500D02*
X156730000Y-78712500D01*
X154500000Y-80500000D02*
X154500000Y-79500000D01*
X158280693Y-76677531D02*
X158280693Y-76119307D01*
X158280693Y-76119307D02*
X158400000Y-76000000D01*
X159250000Y-76750000D02*
X158353162Y-76750000D01*
X158353162Y-76750000D02*
X158280693Y-76677531D01*
X159270000Y-78712500D02*
X159270000Y-76770000D01*
X159270000Y-76770000D02*
X159250000Y-76750000D01*
D32*
X179250000Y-87750000D02*
X178350000Y-87750000D01*
X178350000Y-87750000D02*
X178300000Y-87800000D01*
X177450000Y-79250000D02*
X177000000Y-79700000D01*
X177000000Y-79700000D02*
X175550000Y-79700000D01*
X179000000Y-79250000D02*
X177450000Y-79250000D01*
X179250000Y-87750000D02*
X180750000Y-87750000D01*
D34*
X173150000Y-88200000D02*
X173150000Y-89350000D01*
X173150000Y-89350000D02*
X173200000Y-89400000D01*
X166000000Y-89000000D02*
X166000000Y-90000000D01*
X169950000Y-88200000D02*
X169950000Y-89250000D01*
X169950000Y-89250000D02*
X169900000Y-89300000D01*
X166000000Y-89000000D02*
X166855000Y-89000000D01*
X166855000Y-89000000D02*
X167655000Y-88200000D01*
X167655000Y-88200000D02*
X169950000Y-88200000D01*
X149000000Y-83500000D02*
X149855000Y-83500000D01*
X149855000Y-83500000D02*
X153255000Y-86900000D01*
X153255000Y-86900000D02*
X153300000Y-86900000D01*
X147545000Y-82900000D02*
X146412658Y-82900000D01*
X146412658Y-82900000D02*
X146322871Y-82810213D01*
X149000000Y-83500000D02*
X148145000Y-83500000D01*
X148145000Y-83500000D02*
X147545000Y-82900000D01*
D32*
X133000000Y-59300000D02*
X136635227Y-55664773D01*
X136635227Y-55664773D02*
X137420662Y-55664773D01*
X185100000Y-59200000D02*
X184161838Y-59200000D01*
X184161838Y-59200000D02*
X180579338Y-55617500D01*
X131100000Y-62500000D02*
X131100000Y-62700000D01*
X131100000Y-62700000D02*
X130700000Y-63100000D01*
X131500000Y-61800000D02*
X132000000Y-61300000D01*
X131100000Y-62500000D02*
X131100000Y-62200000D01*
X131100000Y-62200000D02*
X131500000Y-61800000D01*
X131901924Y-63000000D02*
X131600000Y-63000000D01*
X131600000Y-63000000D02*
X131100000Y-62500000D01*
X132600000Y-60000000D02*
X132600000Y-60200000D01*
X132600000Y-60200000D02*
X132200000Y-60600000D01*
X132600000Y-60000000D02*
X132600000Y-59700000D01*
X132600000Y-59700000D02*
X133000000Y-59300000D01*
X133401924Y-60500000D02*
X133100000Y-60500000D01*
X133100000Y-60500000D02*
X132600000Y-60000000D01*
X185500000Y-59800000D02*
X185500000Y-59600000D01*
X185500000Y-59600000D02*
X185100000Y-59200000D01*
X185900000Y-60400000D02*
X185900000Y-61100000D01*
X185500000Y-59800000D02*
X185500000Y-60000000D01*
X185500000Y-60000000D02*
X185900000Y-60400000D01*
X184549038Y-60250000D02*
X185050000Y-60250000D01*
X185050000Y-60250000D02*
X185500000Y-59800000D01*
X186900000Y-62200000D02*
X186900000Y-62400000D01*
X186900000Y-62400000D02*
X187400000Y-62900000D01*
X186900000Y-62200000D02*
X186900000Y-61900000D01*
X186900000Y-61900000D02*
X186500000Y-61500000D01*
X186049038Y-62750000D02*
X186350000Y-62750000D01*
X186350000Y-62750000D02*
X186900000Y-62200000D01*
D35*
X152000000Y-70000000D02*
X152000000Y-65000000D01*
X152000000Y-62000000D02*
X152000000Y-65000000D01*
X155000000Y-58000000D02*
X155500000Y-57500000D01*
X155000000Y-62000000D02*
X155000000Y-58000000D01*
X155000000Y-65000000D02*
X155000000Y-62000000D01*
X155500000Y-57500000D02*
X155500000Y-54000000D01*
X180850001Y-68850001D02*
X181000000Y-69000000D01*
X181000000Y-69000000D02*
X181000000Y-70500000D01*
X177850001Y-68850001D02*
X180850001Y-68850001D01*
X174749999Y-68850001D02*
X177850001Y-68850001D01*
X177850001Y-68850001D02*
X178000000Y-69000000D01*
X178000000Y-69000000D02*
X178000000Y-70500000D01*
X166000000Y-70000000D02*
X166800000Y-69200000D01*
X166000000Y-70500000D02*
X166000000Y-70000000D01*
X162500000Y-57500000D02*
X162500000Y-54000000D01*
X163000000Y-58000000D02*
X162500000Y-57500000D01*
X163000000Y-62000000D02*
X163000000Y-58000000D01*
X163000000Y-65000000D02*
X163000000Y-62000000D01*
D34*
X149600000Y-77500000D02*
X151100000Y-77500000D01*
X149100000Y-77000000D02*
X149600000Y-77500000D01*
X166950000Y-77500000D02*
X168100000Y-77500000D01*
X168100000Y-77500000D02*
X168900000Y-76700000D01*
D32*
X152800000Y-78590000D02*
X152800000Y-79200000D01*
X152800000Y-79200000D02*
X152750000Y-79250000D01*
X153000000Y-77500000D02*
X153000000Y-78390000D01*
X153000000Y-78390000D02*
X152800000Y-78590000D01*
D34*
X157800000Y-77500000D02*
X158000000Y-77700000D01*
X158000000Y-77700000D02*
X158000000Y-78712500D01*
X153000000Y-77500000D02*
X157800000Y-77500000D01*
D32*
X165250000Y-78750000D02*
X165050000Y-78550000D01*
X165050000Y-78550000D02*
X165050000Y-78390000D01*
X165250000Y-79250000D02*
X165250000Y-78750000D01*
X165050000Y-77500000D02*
X165050000Y-78390000D01*
D34*
X160540000Y-78712500D02*
X162787500Y-78712500D01*
X162787500Y-78712500D02*
X164000000Y-77500000D01*
X164000000Y-77500000D02*
X165050000Y-77500000D01*
D32*
X173250000Y-77750000D02*
X173250000Y-78440000D01*
X173250000Y-78440000D02*
X173150000Y-78540000D01*
X173150000Y-78540000D02*
X173150000Y-79700000D01*
X173200000Y-81500000D02*
X173200000Y-79750000D01*
X173200000Y-79750000D02*
X173150000Y-79700000D01*
X166900000Y-83500000D02*
X166900000Y-82300000D01*
X163800000Y-86600000D02*
X166900000Y-83500000D01*
X158900000Y-86600000D02*
X163800000Y-86600000D01*
X158430001Y-86130001D02*
X158900000Y-86600000D01*
X158000000Y-85700000D02*
X158430001Y-86130001D01*
X158000000Y-85127500D02*
X158000000Y-85700000D01*
X158000000Y-84112500D02*
X158000000Y-85127500D01*
X162800000Y-84100000D02*
X165600000Y-81300000D01*
X165600000Y-81300000D02*
X166900000Y-81300000D01*
X162700000Y-84100000D02*
X162800000Y-84100000D01*
X162700000Y-84100000D02*
X160552500Y-84100000D01*
X160552500Y-84100000D02*
X160540000Y-84112500D01*
X172350000Y-79700000D02*
X172350000Y-81050000D01*
X172350000Y-81050000D02*
X172300000Y-81100000D01*
X172000000Y-77750000D02*
X172000000Y-78440000D01*
X172000000Y-78440000D02*
X172350000Y-78790000D01*
X172350000Y-78790000D02*
X172350000Y-79700000D01*
X169950000Y-79700000D02*
X169950000Y-83050000D01*
X169950000Y-83050000D02*
X169900000Y-83100000D01*
X170750000Y-79700000D02*
X170750000Y-82650000D01*
X170750000Y-82650000D02*
X171200000Y-83100000D01*
X174000000Y-86900000D02*
X174000000Y-88150000D01*
X174000000Y-88150000D02*
X173950000Y-88200000D01*
X178635000Y-86250000D02*
X178350000Y-86250000D01*
X178350000Y-86250000D02*
X178300000Y-86200000D01*
X179250000Y-86250000D02*
X178635000Y-86250000D01*
X179250000Y-84500000D02*
X179250000Y-86250000D01*
X180750000Y-84500000D02*
X179250000Y-84500000D01*
X179250000Y-86250000D02*
X180750000Y-86250000D01*
X182100000Y-86700000D02*
X181650000Y-86250000D01*
X181650000Y-86250000D02*
X180750000Y-86250000D01*
X182100000Y-88540000D02*
X182100000Y-86700000D01*
X180750000Y-89250000D02*
X181390000Y-89250000D01*
X181390000Y-89250000D02*
X182100000Y-88540000D01*
X179000000Y-91000000D02*
X179000000Y-89500000D01*
X179000000Y-89500000D02*
X179250000Y-89250000D01*
X184000000Y-88000000D02*
X184000000Y-89767766D01*
X184000000Y-89767766D02*
X182767766Y-91000000D01*
X181740000Y-91000000D02*
X181000000Y-91000000D01*
X182767766Y-91000000D02*
X181740000Y-91000000D01*
X188500000Y-88000000D02*
X184000000Y-92500000D01*
X184000000Y-92500000D02*
X184000000Y-93000000D01*
X184000000Y-83000000D02*
X188500000Y-87500000D01*
X188500000Y-87500000D02*
X188500000Y-88000000D01*
X184000000Y-79500000D02*
X184000000Y-80365000D01*
X184000000Y-80365000D02*
X184000000Y-83000000D01*
D36*
G36*
X175373000Y-72000000D02*
X175383006Y-72049410D01*
X175411447Y-72091035D01*
X175453841Y-72118315D01*
X175500000Y-72127000D01*
X182873000Y-72127000D01*
X182873000Y-75873000D01*
X169466228Y-75873000D01*
X169458686Y-75865445D01*
X169096788Y-75715172D01*
X168704931Y-75714830D01*
X168342771Y-75864471D01*
X168334227Y-75873000D01*
X164627000Y-75873000D01*
X164627000Y-72127000D01*
X168500000Y-72127000D01*
X168549410Y-72116994D01*
X168591035Y-72088553D01*
X168618315Y-72046159D01*
X168627000Y-72000000D01*
X168627000Y-70627000D01*
X175373000Y-70627000D01*
X175373000Y-72000000D01*
X175373000Y-72000000D01*
G37*
X175373000Y-72000000D02*
X175383006Y-72049410D01*
X175411447Y-72091035D01*
X175453841Y-72118315D01*
X175500000Y-72127000D01*
X182873000Y-72127000D01*
X182873000Y-75873000D01*
X169466228Y-75873000D01*
X169458686Y-75865445D01*
X169096788Y-75715172D01*
X168704931Y-75714830D01*
X168342771Y-75864471D01*
X168334227Y-75873000D01*
X164627000Y-75873000D01*
X164627000Y-72127000D01*
X168500000Y-72127000D01*
X168549410Y-72116994D01*
X168591035Y-72088553D01*
X168618315Y-72046159D01*
X168627000Y-72000000D01*
X168627000Y-70627000D01*
X175373000Y-70627000D01*
X175373000Y-72000000D01*
G36*
X149373000Y-71500000D02*
X149383006Y-71549410D01*
X149411447Y-71591035D01*
X149453841Y-71618315D01*
X149500000Y-71627000D01*
X153373000Y-71627000D01*
X153373000Y-75873000D01*
X135127000Y-75873000D01*
X135127000Y-71627000D01*
X142500000Y-71627000D01*
X142549410Y-71616994D01*
X142591035Y-71588553D01*
X142618315Y-71546159D01*
X142627000Y-71500000D01*
X142627000Y-70627000D01*
X149373000Y-70627000D01*
X149373000Y-71500000D01*
X149373000Y-71500000D01*
G37*
X149373000Y-71500000D02*
X149383006Y-71549410D01*
X149411447Y-71591035D01*
X149453841Y-71618315D01*
X149500000Y-71627000D01*
X153373000Y-71627000D01*
X153373000Y-75873000D01*
X135127000Y-75873000D01*
X135127000Y-71627000D01*
X142500000Y-71627000D01*
X142549410Y-71616994D01*
X142591035Y-71588553D01*
X142618315Y-71546159D01*
X142627000Y-71500000D01*
X142627000Y-70627000D01*
X149373000Y-70627000D01*
X149373000Y-71500000D01*
G36*
X156623000Y-66123000D02*
X154377000Y-66123000D01*
X154377000Y-52377000D01*
X156623000Y-52377000D01*
X156623000Y-66123000D01*
X156623000Y-66123000D01*
G37*
X156623000Y-66123000D02*
X154377000Y-66123000D01*
X154377000Y-52377000D01*
X156623000Y-52377000D01*
X156623000Y-66123000D01*
G36*
X163623000Y-66123000D02*
X161377000Y-66123000D01*
X161377000Y-52377000D01*
X163623000Y-52377000D01*
X163623000Y-66123000D01*
X163623000Y-66123000D01*
G37*
X163623000Y-66123000D02*
X161377000Y-66123000D01*
X161377000Y-52377000D01*
X163623000Y-52377000D01*
X163623000Y-66123000D01*
G36*
X152873000Y-70373000D02*
X150627000Y-70373000D01*
X150627000Y-69500000D01*
X150616994Y-69450590D01*
X150588553Y-69408965D01*
X150546159Y-69381685D01*
X150500000Y-69373000D01*
X141500000Y-69373000D01*
X141450590Y-69383006D01*
X141408965Y-69411447D01*
X141381685Y-69453841D01*
X141373000Y-69500000D01*
X141373000Y-70373000D01*
X136127000Y-70373000D01*
X136127000Y-68052606D01*
X147052606Y-57127000D01*
X152873000Y-57127000D01*
X152873000Y-70373000D01*
X152873000Y-70373000D01*
G37*
X152873000Y-70373000D02*
X150627000Y-70373000D01*
X150627000Y-69500000D01*
X150616994Y-69450590D01*
X150588553Y-69408965D01*
X150546159Y-69381685D01*
X150500000Y-69373000D01*
X141500000Y-69373000D01*
X141450590Y-69383006D01*
X141408965Y-69411447D01*
X141381685Y-69453841D01*
X141373000Y-69500000D01*
X141373000Y-70373000D01*
X136127000Y-70373000D01*
X136127000Y-68052606D01*
X147052606Y-57127000D01*
X152873000Y-57127000D01*
X152873000Y-70373000D01*
G36*
X181873000Y-67055249D02*
X181873000Y-70873000D01*
X176627000Y-70873000D01*
X176627000Y-69500000D01*
X176616994Y-69450590D01*
X176588553Y-69408965D01*
X176546159Y-69381685D01*
X176500000Y-69373000D01*
X167500000Y-69373000D01*
X167450590Y-69383006D01*
X167408965Y-69411447D01*
X167381685Y-69453841D01*
X167373000Y-69500000D01*
X167373000Y-70873000D01*
X165127000Y-70873000D01*
X165127000Y-56877000D01*
X170950001Y-56877000D01*
X181873000Y-67055249D01*
X181873000Y-67055249D01*
G37*
X181873000Y-67055249D02*
X181873000Y-70873000D01*
X176627000Y-70873000D01*
X176627000Y-69500000D01*
X176616994Y-69450590D01*
X176588553Y-69408965D01*
X176546159Y-69381685D01*
X176500000Y-69373000D01*
X167500000Y-69373000D01*
X167450590Y-69383006D01*
X167408965Y-69411447D01*
X167381685Y-69453841D01*
X167373000Y-69500000D01*
X167373000Y-70873000D01*
X165127000Y-70873000D01*
X165127000Y-56877000D01*
X170950001Y-56877000D01*
X181873000Y-67055249D01*
G36*
X160573000Y-82473000D02*
X156627000Y-82473000D01*
X156627000Y-80327000D01*
X160573000Y-80327000D01*
X160573000Y-82473000D01*
X160573000Y-82473000D01*
G37*
X160573000Y-82473000D02*
X156627000Y-82473000D01*
X156627000Y-80327000D01*
X160573000Y-80327000D01*
X160573000Y-82473000D01*
G36*
X188076934Y-62958401D02*
X186292362Y-64073759D01*
X182673066Y-58041599D01*
X184457638Y-56926241D01*
X188076934Y-62958401D01*
X188076934Y-62958401D01*
G37*
X188076934Y-62958401D02*
X186292362Y-64073759D01*
X182673066Y-58041599D01*
X184457638Y-56926241D01*
X188076934Y-62958401D01*
G36*
X184827972Y-64712051D02*
X182792123Y-66069283D01*
X180174677Y-61548240D01*
X182205168Y-60420190D01*
X184827972Y-64712051D01*
X184827972Y-64712051D01*
G37*
X184827972Y-64712051D02*
X182792123Y-66069283D01*
X180174677Y-61548240D01*
X182205168Y-60420190D01*
X184827972Y-64712051D01*
G36*
X135081491Y-58544446D02*
X131952701Y-64320673D01*
X130168509Y-63205554D01*
X133297299Y-57429327D01*
X135081491Y-58544446D01*
X135081491Y-58544446D01*
G37*
X135081491Y-58544446D02*
X131952701Y-64320673D01*
X130168509Y-63205554D01*
X133297299Y-57429327D01*
X135081491Y-58544446D01*
G36*
X137830838Y-61544038D02*
X135200186Y-66327042D01*
X133176457Y-65202749D01*
X136042362Y-60426241D01*
X137830838Y-61544038D01*
X137830838Y-61544038D01*
G37*
X137830838Y-61544038D02*
X135200186Y-66327042D01*
X133176457Y-65202749D01*
X136042362Y-60426241D01*
X137830838Y-61544038D01*
M02*
