M48
;DRILL file {KiCad 4.0.4+e1-6308~48~ubuntu14.04.1-stable} date Sun Nov 27 15:14:17 2016
;FORMAT={-:-/ absolute / inch / decimal}
FMAT,2
INCH,TZ
T1C0.013
T2C0.040
T3C0.047
T4C0.067
T5C0.102
T6C0.126
%
G90
G05
M72
T1
X5.1457Y-2.4843
X5.1614Y-2.4606
X5.1772Y-2.4331
X5.1969Y-2.4134
X5.2047Y-2.3858
X5.2205Y-2.3622
X5.2362Y-2.3346
X5.315Y-2.5827
X5.3307Y-2.5591
X5.3445Y-2.8937
X5.3465Y-2.5
X5.3465Y-2.5315
X5.3642Y-2.9331
X5.374Y-2.4882
X5.3898Y-2.4606
X5.3937Y-2.9331
X5.4055Y-2.4331
X5.4232Y-2.9331
X5.4528Y-2.9035
X5.4528Y-2.9331
X5.4823Y-2.9331
X5.5118Y-2.9331
X5.5413Y-2.9331
X5.561Y-2.8937
X5.5709Y-2.9232
X5.6535Y-2.6929
X5.6535Y-2.7244
X5.685Y-2.6929
X5.685Y-2.6929
X5.685Y-2.7244
X5.685Y-2.9449
X5.685Y-2.9764
X5.7165Y-2.6929
X5.7165Y-2.7244
X5.7165Y-2.9449
X5.7165Y-2.9764
X5.748Y-2.6929
X5.748Y-2.6929
X5.748Y-2.7244
X5.748Y-2.9449
X5.748Y-2.9764
X5.7795Y-2.6929
X5.7795Y-2.7244
X5.7795Y-2.9449
X5.7795Y-2.9764
X5.811Y-2.6929
X5.811Y-2.7244
X5.811Y-2.9449
X5.811Y-2.9764
X5.8425Y-2.6929
X5.8425Y-2.7244
X5.8701Y-3.0315
X5.9055Y-3.1575
X5.9055Y-3.2165
X5.9055Y-3.3465
X5.9252Y-2.9232
X5.935Y-2.8937
X5.9547Y-2.9331
X5.9567Y-3.1614
X5.9843Y-2.9331
X6.0138Y-2.9331
X6.0354Y-3.4213
X6.0433Y-3.1693
X6.0827Y-3.1299
X6.0827Y-3.2677
X6.0827Y-3.311
X6.1791Y-3.1831
X6.1791Y-3.2264
X6.1969Y-3.2047
X6.2223Y-3.1821
X6.2223Y-3.2283
X6.2315Y-3.0188
X6.2441Y-3.2047
X6.2686Y-3.1821
X6.2686Y-3.2283
X6.2697Y-2.9892
X6.2717Y-3.3661
X6.2913Y-3.2047
X6.311Y-3.185
X6.311Y-3.2244
X6.3287Y-2.9902
X6.3612Y-3.0217
X6.4961Y-3.4449
X6.5079Y-2.937
X6.5354Y-2.937
X6.5354Y-3.5433
X6.563Y-2.937
X6.5709Y-3.2008
X6.5709Y-3.2402
X6.5827Y-3.3858
X6.5866Y-3.4173
X6.5906Y-2.8937
X6.5906Y-2.9252
X6.5984Y-3.1181
X6.6181Y-3.0512
X6.6772Y-2.6929
X6.6772Y-2.7244
X6.6811Y-3.063
X6.689Y-3.2717
X6.689Y-3.5157
X6.7087Y-2.6929
X6.7087Y-2.7244
X6.7087Y-2.9449
X6.7087Y-2.9764
X6.7323Y-3.5669
X6.7402Y-2.6929
X6.7402Y-2.7244
X6.7402Y-2.9449
X6.7402Y-2.9764
X6.7402Y-3.2717
X6.7717Y-2.6929
X6.7717Y-2.7244
X6.7717Y-2.9449
X6.7717Y-2.9764
X6.7835Y-3.1929
X6.8031Y-2.6929
X6.8031Y-2.7244
X6.8031Y-2.9449
X6.8031Y-2.9764
X6.8189Y-3.2087
X6.8189Y-3.5197
X6.8346Y-2.6929
X6.8346Y-2.7244
X6.8346Y-2.9449
X6.8346Y-2.9764
X6.8504Y-3.4213
X6.8661Y-2.6929
X6.8661Y-2.7244
X6.9134Y-3.0591
X6.9488Y-3.6811
X6.9528Y-2.8937
X6.9528Y-2.9213
X6.9764Y-2.937
X6.9862Y-3.1201
X7.0079Y-2.937
X7.0197Y-3.3937
X7.0197Y-3.4567
X7.0394Y-2.937
X7.0551Y-3.2323
X7.0669Y-2.8937
X7.0669Y-2.9252
X7.0866Y-3.1811
X7.0945Y-2.937
X7.1181Y-2.4252
X7.126Y-2.937
X7.1339Y-2.4528
X7.1496Y-2.4803
X7.1575Y-2.937
X7.1693Y-2.5
X7.1772Y-2.5276
X7.1811Y-2.8937
X7.1811Y-2.9213
X7.1929Y-2.5512
X7.2087Y-2.5787
X7.2874Y-2.3307
X7.3031Y-2.3543
X7.3189Y-2.378
X7.3189Y-2.4055
X7.3425Y-2.4213
X7.3583Y-2.4488
X7.3661Y-3.1299
X7.378Y-2.4764
T2
X6.2244Y-3.5024
X6.311Y-3.5524
X6.3976Y-3.6024
X6.4842Y-3.6524
T3
X5.7283Y-3.622
X5.8661Y-3.622
X6.0039Y-3.622
X6.122Y-2.126
X6.2598Y-2.126
X6.3976Y-2.126
T4
X7.2441Y-3.4646
T5
X7.2441Y-3.2677
X7.2441Y-3.6614
X7.4213Y-3.4646
T6
X5.1575Y-2.8346
X6.2598Y-2.8346
X7.3622Y-2.8346
T0
M30
