G04 #@! TF.FileFunction,Copper,L4,Bot,Signal*
%FSLAX46Y46*%
G04 Gerber Fmt 4.6, Leading zero omitted, Abs format (unit mm)*
G04 Created by KiCad (PCBNEW 4.0.4+e1-6308~48~ubuntu14.04.1-stable) date Sun Nov 27 15:14:10 2016*
%MOMM*%
%LPD*%
G01*
G04 APERTURE LIST*
%ADD10C,0.100000*%
%ADD11O,1.800000X2.500000*%
%ADD12R,5.810000X0.840000*%
%ADD13R,4.240000X0.840000*%
%ADD14R,0.840000X0.990000*%
%ADD15C,1.727200*%
%ADD16C,3.500000*%
%ADD17C,2.500000*%
%ADD18C,0.700000*%
%ADD19C,0.160000*%
%ADD20C,0.480000*%
%ADD21C,0.320000*%
%ADD22C,0.240000*%
%ADD23C,0.254000*%
G04 APERTURE END LIST*
D10*
D11*
X145500000Y-92000000D03*
X149000000Y-92000000D03*
X152500000Y-92000000D03*
X162500000Y-54000000D03*
X159000000Y-54000000D03*
X155500000Y-54000000D03*
D12*
X146000000Y-70200000D03*
D13*
X146000000Y-73800000D03*
D14*
X149040000Y-73720000D03*
X142960000Y-73720000D03*
D12*
X172000000Y-70200000D03*
D13*
X172000000Y-73800000D03*
D14*
X175040000Y-73720000D03*
X168960000Y-73720000D03*
D10*
G36*
X158340491Y-90271682D02*
X156844691Y-89408082D01*
X157860691Y-87648318D01*
X159356491Y-88511918D01*
X158340491Y-90271682D01*
X158340491Y-90271682D01*
G37*
D15*
X160224096Y-90361982D02*
X160376496Y-90098018D01*
X162423800Y-91631982D02*
X162576200Y-91368018D01*
X164623505Y-92901982D02*
X164775905Y-92638018D01*
D16*
X188500000Y-88000000D03*
X184000000Y-93000000D03*
X184000000Y-83000000D03*
D17*
X184000000Y-88000000D03*
D18*
X135750000Y-73500000D03*
X138500000Y-73750000D03*
X138500000Y-74500000D03*
X136250000Y-74500000D03*
X137750000Y-74500000D03*
X137000000Y-74500000D03*
X141500000Y-74250000D03*
X141250000Y-73500000D03*
X139250000Y-74500000D03*
X140750000Y-74500000D03*
X140000000Y-74500000D03*
X150500000Y-74250000D03*
X150750000Y-73500000D03*
X152750000Y-74500000D03*
X151250000Y-74500000D03*
X152000000Y-74500000D03*
X161575000Y-76750000D03*
X160750000Y-75950000D03*
X135000000Y-65600000D03*
X135800000Y-63500000D03*
X135800000Y-64300000D03*
X135400000Y-65000000D03*
X136500000Y-63200000D03*
X137300000Y-61800000D03*
X136900000Y-62500000D03*
X182100000Y-63500000D03*
X183100000Y-65500000D03*
X182300000Y-64200000D03*
X182700000Y-64800000D03*
X180800000Y-61600000D03*
X181600000Y-63000000D03*
X181200000Y-62300000D03*
X176500000Y-93500000D03*
X167600000Y-79200000D03*
X151300000Y-80300000D03*
X175600000Y-77700000D03*
X169700000Y-77800000D03*
X187100000Y-79500000D03*
X180000000Y-80800000D03*
X179200000Y-82100000D03*
X156950000Y-81950000D03*
X156950000Y-80850000D03*
X160300000Y-80900000D03*
X160300000Y-81900000D03*
X157400000Y-81400000D03*
X158600000Y-81400000D03*
X159800000Y-81400000D03*
X165000000Y-87500000D03*
X167200000Y-86000000D03*
X167300000Y-86800000D03*
X150000000Y-85000000D03*
X150000000Y-81700000D03*
X159300000Y-85500000D03*
X154500000Y-83000000D03*
X165300000Y-74600000D03*
X166700000Y-74600000D03*
X166000000Y-74600000D03*
X182400000Y-74200000D03*
X181800000Y-74600000D03*
X176600000Y-74200000D03*
X177200000Y-74600000D03*
X180200000Y-74600000D03*
X179500000Y-74300000D03*
X178800000Y-74600000D03*
X182400000Y-73500000D03*
X181000000Y-74600000D03*
X178000000Y-74600000D03*
X179500000Y-73500000D03*
X176600000Y-73500000D03*
X167400000Y-74300000D03*
X167400000Y-73500000D03*
X173600000Y-75600000D03*
X172800000Y-75600000D03*
X172000000Y-75600000D03*
X171200000Y-75600000D03*
X170400000Y-75600000D03*
X144400000Y-75600000D03*
X145200000Y-75600000D03*
X146000000Y-75600000D03*
X146800000Y-75600000D03*
X147600000Y-75600000D03*
X171000000Y-90600000D03*
X144400000Y-74800000D03*
X145200000Y-74800000D03*
X147600000Y-74800000D03*
X146800000Y-74800000D03*
X146000000Y-74800000D03*
X170400000Y-74800000D03*
X171200000Y-74800000D03*
X173600000Y-74800000D03*
X172800000Y-74800000D03*
X172000000Y-74800000D03*
X158047500Y-82000000D03*
X159222500Y-82000000D03*
X159222500Y-80825000D03*
X158047500Y-80825000D03*
X159250000Y-75925000D03*
X154500000Y-84100000D03*
X153500000Y-80500000D03*
X150000000Y-80200000D03*
X154500000Y-79500000D03*
X158280693Y-76677531D03*
X178300000Y-87800000D03*
X177450000Y-79250000D03*
X173200000Y-89400000D03*
X166000000Y-90000000D03*
X169900000Y-89300000D03*
X153300000Y-86900000D03*
X130700000Y-63100000D03*
X132000000Y-61300000D03*
X131500000Y-61800000D03*
X131100000Y-62500000D03*
X132200000Y-60600000D03*
X133000000Y-59300000D03*
X132600000Y-60000000D03*
X185100000Y-59200000D03*
X185900000Y-61100000D03*
X185900000Y-60400000D03*
X185500000Y-59800000D03*
X187400000Y-62900000D03*
X186500000Y-61500000D03*
X186900000Y-62200000D03*
X143600000Y-68400000D03*
X144400000Y-68400000D03*
X144400000Y-68400000D03*
X145200000Y-68400000D03*
X146000000Y-68400000D03*
X146000000Y-68400000D03*
X146800000Y-68400000D03*
X147600000Y-68400000D03*
X148400000Y-68400000D03*
X143600000Y-69200000D03*
X144400000Y-69200000D03*
X145200000Y-69200000D03*
X148400000Y-69200000D03*
X147600000Y-69200000D03*
X146800000Y-69200000D03*
X146000000Y-69200000D03*
X169600000Y-68400000D03*
X170400000Y-68400000D03*
X171200000Y-68400000D03*
X172000000Y-68400000D03*
X172800000Y-68400000D03*
X173600000Y-68400000D03*
X174400000Y-68400000D03*
X169600000Y-69200000D03*
X170400000Y-69200000D03*
X171200000Y-69200000D03*
X174400000Y-69200000D03*
X173600000Y-69200000D03*
X172800000Y-69200000D03*
X172000000Y-69200000D03*
X149100000Y-77000000D03*
X168100000Y-77500000D03*
X173200000Y-81500000D03*
X166900000Y-82300000D03*
X166900000Y-81300000D03*
X172300000Y-81100000D03*
X169900000Y-83100000D03*
X171200000Y-83100000D03*
X174000000Y-86900000D03*
X178300000Y-86200000D03*
D19*
X159222500Y-82000000D02*
X159222500Y-81977500D01*
D20*
X173600000Y-74800000D02*
X173600000Y-75600000D01*
X172800000Y-74800000D02*
X172800000Y-75600000D01*
X172000000Y-74800000D02*
X172000000Y-75600000D01*
X171200000Y-74800000D02*
X171200000Y-75600000D01*
X170400000Y-74800000D02*
X170400000Y-75600000D01*
X144400000Y-74800000D02*
X144400000Y-75600000D01*
X145200000Y-74800000D02*
X145200000Y-75600000D01*
X146000000Y-74800000D02*
X146000000Y-75600000D01*
X146800000Y-74800000D02*
X146800000Y-75600000D01*
X147600000Y-74800000D02*
X147600000Y-75600000D01*
X145200000Y-74800000D02*
X144400000Y-74800000D01*
X146000000Y-74800000D02*
X145200000Y-74800000D01*
X146800000Y-74800000D02*
X147600000Y-74800000D01*
X146000000Y-74800000D02*
X146800000Y-74800000D01*
X146000000Y-73800000D02*
X146000000Y-74800000D01*
X171200000Y-74800000D02*
X170400000Y-74800000D01*
X172000000Y-74800000D02*
X171200000Y-74800000D01*
X172800000Y-74800000D02*
X173600000Y-74800000D01*
X172000000Y-74800000D02*
X172800000Y-74800000D01*
X172000000Y-73800000D02*
X172000000Y-74800000D01*
D21*
X143600000Y-69200000D02*
X143600000Y-68400000D01*
X144400000Y-69200000D02*
X144400000Y-68400000D01*
X145200000Y-69200000D02*
X145200000Y-68400000D01*
X146000000Y-69200000D02*
X146000000Y-68400000D01*
X146800000Y-69200000D02*
X146800000Y-68400000D01*
X147600000Y-69200000D02*
X147600000Y-68400000D01*
X148400000Y-69200000D02*
X148400000Y-68400000D01*
D20*
X144400000Y-69200000D02*
X143600000Y-69200000D01*
X145200000Y-69200000D02*
X144400000Y-69200000D01*
X146000000Y-69200000D02*
X145200000Y-69200000D01*
X147600000Y-69200000D02*
X148400000Y-69200000D01*
X146800000Y-69200000D02*
X147600000Y-69200000D01*
X146000000Y-69200000D02*
X146800000Y-69200000D01*
X146000000Y-70200000D02*
X146000000Y-69200000D01*
X169600000Y-69200000D02*
X169600000Y-68400000D01*
X170400000Y-69200000D02*
X170400000Y-68400000D01*
X171200000Y-69200000D02*
X171200000Y-68400000D01*
X172000000Y-69200000D02*
X172000000Y-68400000D01*
X172800000Y-69200000D02*
X172800000Y-68400000D01*
X173600000Y-69200000D02*
X173600000Y-68400000D01*
X174400000Y-69200000D02*
X174400000Y-68400000D01*
X170400000Y-69200000D02*
X169600000Y-69200000D01*
X171200000Y-69200000D02*
X170400000Y-69200000D01*
X172000000Y-69200000D02*
X171200000Y-69200000D01*
X173600000Y-69200000D02*
X174400000Y-69200000D01*
X172800000Y-69200000D02*
X173600000Y-69200000D01*
X172000000Y-69200000D02*
X172800000Y-69200000D01*
X172000000Y-70200000D02*
X172000000Y-69200000D01*
X149040000Y-73720000D02*
X149040000Y-76940000D01*
X149040000Y-76940000D02*
X149100000Y-77000000D01*
X168900000Y-76700000D02*
X168100000Y-77500000D01*
X168900000Y-76700000D02*
X168900000Y-73780000D01*
X168900000Y-73780000D02*
X168960000Y-73720000D01*
D22*
X172500000Y-82300000D02*
X173200000Y-81600000D01*
X173200000Y-81600000D02*
X173200000Y-81500000D01*
X166900000Y-82300000D02*
X172500000Y-82300000D01*
X166900000Y-81300000D02*
X172100000Y-81300000D01*
X172100000Y-81300000D02*
X172300000Y-81100000D01*
X169900000Y-83100000D02*
X167630001Y-85369999D01*
X167630001Y-85369999D02*
X165160297Y-85369999D01*
X165160297Y-85369999D02*
X161083430Y-89446866D01*
X161083430Y-89446866D02*
X160300296Y-90230000D01*
X164699705Y-92770000D02*
X168400000Y-89069705D01*
X168400000Y-89069705D02*
X168400000Y-85900000D01*
X168400000Y-85900000D02*
X171200000Y-83100000D01*
X177305026Y-86700000D02*
X174200000Y-86700000D01*
X174200000Y-86700000D02*
X174000000Y-86900000D01*
X178300000Y-86200000D02*
X177805026Y-86200000D01*
X177805026Y-86200000D02*
X177305026Y-86700000D01*
D23*
G36*
X148873000Y-70873000D02*
X143127000Y-70873000D01*
X143127000Y-68127000D01*
X148873000Y-68127000D01*
X148873000Y-70873000D01*
X148873000Y-70873000D01*
G37*
X148873000Y-70873000D02*
X143127000Y-70873000D01*
X143127000Y-68127000D01*
X148873000Y-68127000D01*
X148873000Y-70873000D01*
G36*
X174873000Y-70873000D02*
X169127000Y-70873000D01*
X169127000Y-68127000D01*
X174873000Y-68127000D01*
X174873000Y-70873000D01*
X174873000Y-70873000D01*
G37*
X174873000Y-70873000D02*
X169127000Y-70873000D01*
X169127000Y-68127000D01*
X174873000Y-68127000D01*
X174873000Y-70873000D01*
G36*
X189873000Y-86152420D02*
X189791501Y-86070779D01*
X188954910Y-85723396D01*
X188049064Y-85722606D01*
X187211868Y-86068528D01*
X186570779Y-86708499D01*
X186223396Y-87545090D01*
X186222606Y-88450936D01*
X186568528Y-89288132D01*
X187208499Y-89929221D01*
X188045090Y-90276604D01*
X188950936Y-90277394D01*
X189788132Y-89931472D01*
X189873000Y-89846752D01*
X189873000Y-94873000D01*
X185346706Y-94873000D01*
X185929221Y-94291501D01*
X186276604Y-93454910D01*
X186277394Y-92549064D01*
X185931472Y-91711868D01*
X185291501Y-91070779D01*
X184454910Y-90723396D01*
X183549064Y-90722606D01*
X182711868Y-91068528D01*
X182070779Y-91708499D01*
X181723396Y-92545090D01*
X181722606Y-93450936D01*
X182068528Y-94288132D01*
X182652376Y-94873000D01*
X128127000Y-94873000D01*
X128127000Y-91615187D01*
X144073000Y-91615187D01*
X144073000Y-92384813D01*
X144181624Y-92930902D01*
X144490959Y-93393854D01*
X144953911Y-93703189D01*
X145500000Y-93811813D01*
X146046089Y-93703189D01*
X146509041Y-93393854D01*
X146818376Y-92930902D01*
X146927000Y-92384813D01*
X146927000Y-91615187D01*
X147573000Y-91615187D01*
X147573000Y-92384813D01*
X147681624Y-92930902D01*
X147990959Y-93393854D01*
X148453911Y-93703189D01*
X149000000Y-93811813D01*
X149546089Y-93703189D01*
X150009041Y-93393854D01*
X150318376Y-92930902D01*
X150427000Y-92384813D01*
X150427000Y-91615187D01*
X150318376Y-91069098D01*
X150009041Y-90606146D01*
X149546089Y-90296811D01*
X149000000Y-90188187D01*
X148453911Y-90296811D01*
X147990959Y-90606146D01*
X147681624Y-91069098D01*
X147573000Y-91615187D01*
X146927000Y-91615187D01*
X146818376Y-91069098D01*
X146509041Y-90606146D01*
X146046089Y-90296811D01*
X145500000Y-90188187D01*
X144953911Y-90296811D01*
X144490959Y-90606146D01*
X144181624Y-91069098D01*
X144073000Y-91615187D01*
X128127000Y-91615187D01*
X128127000Y-89326924D01*
X156313532Y-89326924D01*
X156323804Y-89539969D01*
X156416154Y-89732232D01*
X156576029Y-89873418D01*
X158071829Y-90737018D01*
X158259332Y-90802841D01*
X158472377Y-90792569D01*
X158664641Y-90700219D01*
X158805827Y-90540344D01*
X158847426Y-90468292D01*
X158865763Y-90748070D01*
X159105741Y-91234701D01*
X159513677Y-91592454D01*
X160027467Y-91766864D01*
X160568890Y-91731379D01*
X161055521Y-91491401D01*
X161413274Y-91083465D01*
X161595904Y-90767143D01*
X161770314Y-90253353D01*
X161734829Y-89711930D01*
X161734344Y-89710948D01*
X165428293Y-86016999D01*
X167630001Y-86016999D01*
X167753000Y-85992533D01*
X167753000Y-88801709D01*
X166833656Y-89721053D01*
X166743918Y-89503869D01*
X166497429Y-89256949D01*
X166175211Y-89123153D01*
X165826319Y-89122849D01*
X165503869Y-89256082D01*
X165256949Y-89502571D01*
X165123153Y-89824789D01*
X165122849Y-90173681D01*
X165256082Y-90496131D01*
X165502571Y-90743051D01*
X165720971Y-90833738D01*
X165233116Y-91321593D01*
X164972534Y-91233136D01*
X164431111Y-91268621D01*
X163944480Y-91508598D01*
X163586727Y-91916535D01*
X163404097Y-92232857D01*
X163229687Y-92746647D01*
X163265172Y-93288070D01*
X163505150Y-93774701D01*
X163913086Y-94132454D01*
X164426876Y-94306864D01*
X164968299Y-94271379D01*
X165454930Y-94031401D01*
X165812683Y-93623465D01*
X165995313Y-93307143D01*
X166169723Y-92793353D01*
X166134238Y-92251930D01*
X166133753Y-92250948D01*
X168857498Y-89527203D01*
X168997750Y-89317302D01*
X169023096Y-89189877D01*
X169022849Y-89473681D01*
X169156082Y-89796131D01*
X169402571Y-90043051D01*
X169724789Y-90176847D01*
X170073681Y-90177151D01*
X170396131Y-90043918D01*
X170643051Y-89797429D01*
X170735958Y-89573681D01*
X172322849Y-89573681D01*
X172456082Y-89896131D01*
X172702571Y-90143051D01*
X173024789Y-90276847D01*
X173373681Y-90277151D01*
X173696131Y-90143918D01*
X173943051Y-89897429D01*
X174076847Y-89575211D01*
X174077151Y-89226319D01*
X173943918Y-88903869D01*
X173697429Y-88656949D01*
X173375211Y-88523153D01*
X173026319Y-88522849D01*
X172703869Y-88656082D01*
X172456949Y-88902571D01*
X172323153Y-89224789D01*
X172322849Y-89573681D01*
X170735958Y-89573681D01*
X170776847Y-89475211D01*
X170777151Y-89126319D01*
X170643918Y-88803869D01*
X170397429Y-88556949D01*
X170075211Y-88423153D01*
X169726319Y-88422849D01*
X169403869Y-88556082D01*
X169156949Y-88802571D01*
X169047000Y-89067359D01*
X169047000Y-87073681D01*
X173122849Y-87073681D01*
X173256082Y-87396131D01*
X173502571Y-87643051D01*
X173824789Y-87776847D01*
X174173681Y-87777151D01*
X174496131Y-87643918D01*
X174743051Y-87397429D01*
X174763991Y-87347000D01*
X177305026Y-87347000D01*
X177552622Y-87297750D01*
X177580314Y-87279247D01*
X177556949Y-87302571D01*
X177423153Y-87624789D01*
X177422849Y-87973681D01*
X177556082Y-88296131D01*
X177802571Y-88543051D01*
X178124789Y-88676847D01*
X178473681Y-88677151D01*
X178796131Y-88543918D01*
X178988468Y-88351916D01*
X182222693Y-88351916D01*
X182492655Y-89005274D01*
X182992096Y-89505588D01*
X183644982Y-89776690D01*
X184351916Y-89777307D01*
X185005274Y-89507345D01*
X185505588Y-89007904D01*
X185776690Y-88355018D01*
X185777307Y-87648084D01*
X185507345Y-86994726D01*
X185007904Y-86494412D01*
X184355018Y-86223310D01*
X183648084Y-86222693D01*
X182994726Y-86492655D01*
X182494412Y-86992096D01*
X182223310Y-87644982D01*
X182222693Y-88351916D01*
X178988468Y-88351916D01*
X179043051Y-88297429D01*
X179176847Y-87975211D01*
X179177151Y-87626319D01*
X179043918Y-87303869D01*
X178797429Y-87056949D01*
X178660341Y-87000025D01*
X178796131Y-86943918D01*
X179043051Y-86697429D01*
X179176847Y-86375211D01*
X179177151Y-86026319D01*
X179043918Y-85703869D01*
X178797429Y-85456949D01*
X178475211Y-85323153D01*
X178126319Y-85322849D01*
X177803869Y-85456082D01*
X177682334Y-85577405D01*
X177557430Y-85602250D01*
X177347528Y-85742502D01*
X177037030Y-86053000D01*
X174247091Y-86053000D01*
X174175211Y-86023153D01*
X173826319Y-86022849D01*
X173503869Y-86156082D01*
X173256949Y-86402571D01*
X173123153Y-86724789D01*
X173122849Y-87073681D01*
X169047000Y-87073681D01*
X169047000Y-86167996D01*
X171237963Y-83977033D01*
X171373681Y-83977151D01*
X171696131Y-83843918D01*
X171943051Y-83597429D01*
X172003879Y-83450936D01*
X181722606Y-83450936D01*
X182068528Y-84288132D01*
X182708499Y-84929221D01*
X183545090Y-85276604D01*
X184450936Y-85277394D01*
X185288132Y-84931472D01*
X185929221Y-84291501D01*
X186276604Y-83454910D01*
X186277394Y-82549064D01*
X185931472Y-81711868D01*
X185291501Y-81070779D01*
X184454910Y-80723396D01*
X183549064Y-80722606D01*
X182711868Y-81068528D01*
X182070779Y-81708499D01*
X181723396Y-82545090D01*
X181722606Y-83450936D01*
X172003879Y-83450936D01*
X172076847Y-83275211D01*
X172077133Y-82947000D01*
X172500000Y-82947000D01*
X172747596Y-82897750D01*
X172957498Y-82757498D01*
X173337876Y-82377120D01*
X173373681Y-82377151D01*
X173696131Y-82243918D01*
X173943051Y-81997429D01*
X174076847Y-81675211D01*
X174077151Y-81326319D01*
X173943918Y-81003869D01*
X173697429Y-80756949D01*
X173375211Y-80623153D01*
X173051770Y-80622871D01*
X173043918Y-80603869D01*
X172797429Y-80356949D01*
X172475211Y-80223153D01*
X172126319Y-80222849D01*
X171803869Y-80356082D01*
X171556949Y-80602571D01*
X171536009Y-80653000D01*
X167493312Y-80653000D01*
X167397429Y-80556949D01*
X167075211Y-80423153D01*
X166726319Y-80422849D01*
X166403869Y-80556082D01*
X166156949Y-80802571D01*
X166023153Y-81124789D01*
X166022849Y-81473681D01*
X166156082Y-81796131D01*
X166159735Y-81799790D01*
X166156949Y-81802571D01*
X166023153Y-82124789D01*
X166022849Y-82473681D01*
X166156082Y-82796131D01*
X166402571Y-83043051D01*
X166724789Y-83176847D01*
X167073681Y-83177151D01*
X167396131Y-83043918D01*
X167493218Y-82947000D01*
X169023134Y-82947000D01*
X169023033Y-83061971D01*
X167362005Y-84722999D01*
X165160297Y-84722999D01*
X164912701Y-84772249D01*
X164702799Y-84912501D01*
X160833707Y-88781593D01*
X160573125Y-88693136D01*
X160031702Y-88728621D01*
X159780227Y-88852633D01*
X159821827Y-88780580D01*
X159887650Y-88593076D01*
X159877378Y-88380031D01*
X159785028Y-88187768D01*
X159625153Y-88046582D01*
X158129353Y-87182982D01*
X157941850Y-87117159D01*
X157728805Y-87127431D01*
X157536541Y-87219781D01*
X157395355Y-87379656D01*
X156379355Y-89139420D01*
X156313532Y-89326924D01*
X128127000Y-89326924D01*
X128127000Y-87073681D01*
X152422849Y-87073681D01*
X152556082Y-87396131D01*
X152802571Y-87643051D01*
X153124789Y-87776847D01*
X153473681Y-87777151D01*
X153796131Y-87643918D01*
X154043051Y-87397429D01*
X154176847Y-87075211D01*
X154177151Y-86726319D01*
X154043918Y-86403869D01*
X153797429Y-86156949D01*
X153475211Y-86023153D01*
X153126319Y-86022849D01*
X152803869Y-86156082D01*
X152556949Y-86402571D01*
X152423153Y-86724789D01*
X152422849Y-87073681D01*
X128127000Y-87073681D01*
X128127000Y-84273681D01*
X153622849Y-84273681D01*
X153756082Y-84596131D01*
X154002571Y-84843051D01*
X154324789Y-84976847D01*
X154673681Y-84977151D01*
X154996131Y-84843918D01*
X155243051Y-84597429D01*
X155376847Y-84275211D01*
X155377151Y-83926319D01*
X155243918Y-83603869D01*
X154997429Y-83356949D01*
X154675211Y-83223153D01*
X154326319Y-83222849D01*
X154003869Y-83356082D01*
X153756949Y-83602571D01*
X153623153Y-83924789D01*
X153622849Y-84273681D01*
X128127000Y-84273681D01*
X128127000Y-80373681D01*
X149122849Y-80373681D01*
X149256082Y-80696131D01*
X149502571Y-80943051D01*
X149824789Y-81076847D01*
X150173681Y-81077151D01*
X150496131Y-80943918D01*
X150743051Y-80697429D01*
X150752911Y-80673681D01*
X152622849Y-80673681D01*
X152756082Y-80996131D01*
X153002571Y-81243051D01*
X153324789Y-81376847D01*
X153673681Y-81377151D01*
X153996131Y-81243918D01*
X154243051Y-80997429D01*
X154376847Y-80675211D01*
X154377107Y-80376893D01*
X154673681Y-80377151D01*
X154996131Y-80243918D01*
X155243051Y-79997429D01*
X155376847Y-79675211D01*
X155377066Y-79423681D01*
X176572849Y-79423681D01*
X176706082Y-79746131D01*
X176952571Y-79993051D01*
X177274789Y-80126847D01*
X177623681Y-80127151D01*
X177946131Y-79993918D01*
X178193051Y-79747429D01*
X178326847Y-79425211D01*
X178327151Y-79076319D01*
X178193918Y-78753869D01*
X177947429Y-78506949D01*
X177625211Y-78373153D01*
X177276319Y-78372849D01*
X176953869Y-78506082D01*
X176706949Y-78752571D01*
X176573153Y-79074789D01*
X176572849Y-79423681D01*
X155377066Y-79423681D01*
X155377151Y-79326319D01*
X155243918Y-79003869D01*
X154997429Y-78756949D01*
X154675211Y-78623153D01*
X154326319Y-78622849D01*
X154003869Y-78756082D01*
X153756949Y-79002571D01*
X153623153Y-79324789D01*
X153622893Y-79623107D01*
X153326319Y-79622849D01*
X153003869Y-79756082D01*
X152756949Y-80002571D01*
X152623153Y-80324789D01*
X152622849Y-80673681D01*
X150752911Y-80673681D01*
X150876847Y-80375211D01*
X150877151Y-80026319D01*
X150743918Y-79703869D01*
X150497429Y-79456949D01*
X150175211Y-79323153D01*
X149826319Y-79322849D01*
X149503869Y-79456082D01*
X149256949Y-79702571D01*
X149123153Y-80024789D01*
X149122849Y-80373681D01*
X128127000Y-80373681D01*
X128127000Y-72421230D01*
X128872632Y-72421230D01*
X129195766Y-73203274D01*
X129793578Y-73802131D01*
X130575057Y-74126630D01*
X131421230Y-74127368D01*
X132203274Y-73804234D01*
X132802131Y-73206422D01*
X133126630Y-72424943D01*
X133127368Y-71578770D01*
X132804234Y-70796726D01*
X132206422Y-70197869D01*
X131424943Y-69873370D01*
X130578770Y-69872632D01*
X129796726Y-70195766D01*
X129197869Y-70793578D01*
X128873370Y-71575057D01*
X128872632Y-72421230D01*
X128127000Y-72421230D01*
X128127000Y-66000000D01*
X140873000Y-66000000D01*
X140873000Y-73000000D01*
X140883006Y-73049410D01*
X140911447Y-73091035D01*
X140953841Y-73118315D01*
X141000000Y-73127000D01*
X142022522Y-73127000D01*
X142002676Y-73225000D01*
X142002676Y-74215000D01*
X142039423Y-74410294D01*
X142154842Y-74589660D01*
X142330951Y-74709990D01*
X142540000Y-74752324D01*
X143380000Y-74752324D01*
X143575294Y-74715577D01*
X143754660Y-74600158D01*
X143874990Y-74424049D01*
X143917324Y-74215000D01*
X143917324Y-73225000D01*
X143898884Y-73127000D01*
X148102522Y-73127000D01*
X148082676Y-73225000D01*
X148082676Y-74215000D01*
X148119423Y-74410294D01*
X148234842Y-74589660D01*
X148273000Y-74615732D01*
X148273000Y-76704744D01*
X148223153Y-76824789D01*
X148222849Y-77173681D01*
X148356082Y-77496131D01*
X148602571Y-77743051D01*
X148924789Y-77876847D01*
X149273681Y-77877151D01*
X149596131Y-77743918D01*
X149843051Y-77497429D01*
X149976847Y-77175211D01*
X149977129Y-76851212D01*
X157403542Y-76851212D01*
X157536775Y-77173662D01*
X157783264Y-77420582D01*
X158105482Y-77554378D01*
X158454374Y-77554682D01*
X158776824Y-77421449D01*
X159023744Y-77174960D01*
X159157540Y-76852742D01*
X159157584Y-76801919D01*
X159423681Y-76802151D01*
X159746131Y-76668918D01*
X159993051Y-76422429D01*
X160126847Y-76100211D01*
X160127151Y-75751319D01*
X159993918Y-75428869D01*
X159747429Y-75181949D01*
X159425211Y-75048153D01*
X159076319Y-75047849D01*
X158753869Y-75181082D01*
X158506949Y-75427571D01*
X158373153Y-75749789D01*
X158373109Y-75800612D01*
X158107012Y-75800380D01*
X157784562Y-75933613D01*
X157537642Y-76180102D01*
X157403846Y-76502320D01*
X157403542Y-76851212D01*
X149977129Y-76851212D01*
X149977151Y-76826319D01*
X149843918Y-76503869D01*
X149807000Y-76466886D01*
X149807000Y-74617957D01*
X149834660Y-74600158D01*
X149954990Y-74424049D01*
X149997324Y-74215000D01*
X149997324Y-73225000D01*
X149978884Y-73127000D01*
X151000000Y-73127000D01*
X151049410Y-73116994D01*
X151091035Y-73088553D01*
X151118315Y-73046159D01*
X151127000Y-73000000D01*
X151127000Y-72421230D01*
X156872632Y-72421230D01*
X157195766Y-73203274D01*
X157793578Y-73802131D01*
X158575057Y-74126630D01*
X159421230Y-74127368D01*
X160203274Y-73804234D01*
X160802131Y-73206422D01*
X161126630Y-72424943D01*
X161127368Y-71578770D01*
X160804234Y-70796726D01*
X160206422Y-70197869D01*
X159424943Y-69873370D01*
X158578770Y-69872632D01*
X157796726Y-70195766D01*
X157197869Y-70793578D01*
X156873370Y-71575057D01*
X156872632Y-72421230D01*
X151127000Y-72421230D01*
X151127000Y-66000000D01*
X166873000Y-66000000D01*
X166873000Y-73000000D01*
X166883006Y-73049410D01*
X166911447Y-73091035D01*
X166953841Y-73118315D01*
X167000000Y-73127000D01*
X168022522Y-73127000D01*
X168002676Y-73225000D01*
X168002676Y-74215000D01*
X168039423Y-74410294D01*
X168133000Y-74555717D01*
X168133000Y-76382298D01*
X167868600Y-76646698D01*
X167603869Y-76756082D01*
X167356949Y-77002571D01*
X167223153Y-77324789D01*
X167222849Y-77673681D01*
X167356082Y-77996131D01*
X167602571Y-78243051D01*
X167924789Y-78376847D01*
X168273681Y-78377151D01*
X168596131Y-78243918D01*
X168843051Y-77997429D01*
X168953667Y-77731035D01*
X169442351Y-77242351D01*
X169608616Y-76993519D01*
X169667000Y-76700000D01*
X169667000Y-74656566D01*
X169754660Y-74600158D01*
X169874990Y-74424049D01*
X169917324Y-74215000D01*
X169917324Y-73225000D01*
X169898884Y-73127000D01*
X174102522Y-73127000D01*
X174082676Y-73225000D01*
X174082676Y-74215000D01*
X174119423Y-74410294D01*
X174234842Y-74589660D01*
X174410951Y-74709990D01*
X174620000Y-74752324D01*
X175460000Y-74752324D01*
X175655294Y-74715577D01*
X175834660Y-74600158D01*
X175954990Y-74424049D01*
X175997324Y-74215000D01*
X175997324Y-73225000D01*
X175978884Y-73127000D01*
X177000000Y-73127000D01*
X177049410Y-73116994D01*
X177091035Y-73088553D01*
X177118315Y-73046159D01*
X177127000Y-73000000D01*
X177127000Y-72421230D01*
X184872632Y-72421230D01*
X185195766Y-73203274D01*
X185793578Y-73802131D01*
X186575057Y-74126630D01*
X187421230Y-74127368D01*
X188203274Y-73804234D01*
X188802131Y-73206422D01*
X189126630Y-72424943D01*
X189127368Y-71578770D01*
X188804234Y-70796726D01*
X188206422Y-70197869D01*
X187424943Y-69873370D01*
X186578770Y-69872632D01*
X185796726Y-70195766D01*
X185197869Y-70793578D01*
X184873370Y-71575057D01*
X184872632Y-72421230D01*
X177127000Y-72421230D01*
X177127000Y-66000000D01*
X177116994Y-65950590D01*
X177088553Y-65908965D01*
X177046159Y-65881685D01*
X177000000Y-65873000D01*
X167000000Y-65873000D01*
X166950590Y-65883006D01*
X166908965Y-65911447D01*
X166881685Y-65953841D01*
X166873000Y-66000000D01*
X151127000Y-66000000D01*
X151116994Y-65950590D01*
X151088553Y-65908965D01*
X151046159Y-65881685D01*
X151000000Y-65873000D01*
X141000000Y-65873000D01*
X140950590Y-65883006D01*
X140908965Y-65911447D01*
X140881685Y-65953841D01*
X140873000Y-66000000D01*
X128127000Y-66000000D01*
X128127000Y-63273681D01*
X129822849Y-63273681D01*
X129956082Y-63596131D01*
X130202571Y-63843051D01*
X130524789Y-63976847D01*
X130873681Y-63977151D01*
X131196131Y-63843918D01*
X131443051Y-63597429D01*
X131576847Y-63275211D01*
X131576867Y-63251878D01*
X131596131Y-63243918D01*
X131843051Y-62997429D01*
X131976847Y-62675211D01*
X131976954Y-62551842D01*
X131996131Y-62543918D01*
X132243051Y-62297429D01*
X132317705Y-62117642D01*
X132496131Y-62043918D01*
X132743051Y-61797429D01*
X132876847Y-61475211D01*
X132877119Y-61163246D01*
X132943051Y-61097429D01*
X133076847Y-60775211D01*
X133076867Y-60751878D01*
X133096131Y-60743918D01*
X133343051Y-60497429D01*
X133476847Y-60175211D01*
X133476954Y-60051842D01*
X133496131Y-60043918D01*
X133743051Y-59797429D01*
X133876847Y-59475211D01*
X133876935Y-59373681D01*
X184222849Y-59373681D01*
X184356082Y-59696131D01*
X184602571Y-59943051D01*
X184622868Y-59951479D01*
X184622849Y-59973681D01*
X184756082Y-60296131D01*
X185002571Y-60543051D01*
X185022868Y-60551479D01*
X185022849Y-60573681D01*
X185095717Y-60750035D01*
X185023153Y-60924789D01*
X185022849Y-61273681D01*
X185156082Y-61596131D01*
X185402571Y-61843051D01*
X185724789Y-61976847D01*
X185748122Y-61976867D01*
X185756082Y-61996131D01*
X186002571Y-62243051D01*
X186022955Y-62251515D01*
X186022849Y-62373681D01*
X186156082Y-62696131D01*
X186402571Y-62943051D01*
X186522919Y-62993024D01*
X186522849Y-63073681D01*
X186656082Y-63396131D01*
X186902571Y-63643051D01*
X187224789Y-63776847D01*
X187573681Y-63777151D01*
X187896131Y-63643918D01*
X188143051Y-63397429D01*
X188276847Y-63075211D01*
X188277151Y-62726319D01*
X188143918Y-62403869D01*
X187897429Y-62156949D01*
X187777081Y-62106976D01*
X187777151Y-62026319D01*
X187643918Y-61703869D01*
X187397429Y-61456949D01*
X187377045Y-61448485D01*
X187377151Y-61326319D01*
X187243918Y-61003869D01*
X186997429Y-60756949D01*
X186744921Y-60652099D01*
X186776847Y-60575211D01*
X186777151Y-60226319D01*
X186643918Y-59903869D01*
X186397429Y-59656949D01*
X186377132Y-59648521D01*
X186377151Y-59626319D01*
X186243918Y-59303869D01*
X185997429Y-59056949D01*
X185977132Y-59048521D01*
X185977151Y-59026319D01*
X185843918Y-58703869D01*
X185597429Y-58456949D01*
X185275211Y-58323153D01*
X184926319Y-58322849D01*
X184603869Y-58456082D01*
X184356949Y-58702571D01*
X184223153Y-59024789D01*
X184222849Y-59373681D01*
X133876935Y-59373681D01*
X133877151Y-59126319D01*
X133743918Y-58803869D01*
X133497429Y-58556949D01*
X133175211Y-58423153D01*
X132826319Y-58422849D01*
X132503869Y-58556082D01*
X132256949Y-58802571D01*
X132123153Y-59124789D01*
X132123046Y-59248158D01*
X132103869Y-59256082D01*
X131856949Y-59502571D01*
X131723153Y-59824789D01*
X131723133Y-59848122D01*
X131703869Y-59856082D01*
X131456949Y-60102571D01*
X131323153Y-60424789D01*
X131322881Y-60736754D01*
X131256949Y-60802571D01*
X131182295Y-60982358D01*
X131003869Y-61056082D01*
X130756949Y-61302571D01*
X130623153Y-61624789D01*
X130623046Y-61748158D01*
X130603869Y-61756082D01*
X130356949Y-62002571D01*
X130223153Y-62324789D01*
X130223133Y-62348122D01*
X130203869Y-62356082D01*
X129956949Y-62602571D01*
X129823153Y-62924789D01*
X129822849Y-63273681D01*
X128127000Y-63273681D01*
X128127000Y-53615187D01*
X154073000Y-53615187D01*
X154073000Y-54384813D01*
X154181624Y-54930902D01*
X154490959Y-55393854D01*
X154953911Y-55703189D01*
X155500000Y-55811813D01*
X156046089Y-55703189D01*
X156509041Y-55393854D01*
X156818376Y-54930902D01*
X156927000Y-54384813D01*
X156927000Y-53615187D01*
X161073000Y-53615187D01*
X161073000Y-54384813D01*
X161181624Y-54930902D01*
X161490959Y-55393854D01*
X161953911Y-55703189D01*
X162500000Y-55811813D01*
X163046089Y-55703189D01*
X163509041Y-55393854D01*
X163818376Y-54930902D01*
X163927000Y-54384813D01*
X163927000Y-53615187D01*
X163818376Y-53069098D01*
X163509041Y-52606146D01*
X163046089Y-52296811D01*
X162500000Y-52188187D01*
X161953911Y-52296811D01*
X161490959Y-52606146D01*
X161181624Y-53069098D01*
X161073000Y-53615187D01*
X156927000Y-53615187D01*
X156818376Y-53069098D01*
X156509041Y-52606146D01*
X156046089Y-52296811D01*
X155500000Y-52188187D01*
X154953911Y-52296811D01*
X154490959Y-52606146D01*
X154181624Y-53069098D01*
X154073000Y-53615187D01*
X128127000Y-53615187D01*
X128127000Y-51127000D01*
X189873000Y-51127000D01*
X189873000Y-86152420D01*
X189873000Y-86152420D01*
G37*
X189873000Y-86152420D02*
X189791501Y-86070779D01*
X188954910Y-85723396D01*
X188049064Y-85722606D01*
X187211868Y-86068528D01*
X186570779Y-86708499D01*
X186223396Y-87545090D01*
X186222606Y-88450936D01*
X186568528Y-89288132D01*
X187208499Y-89929221D01*
X188045090Y-90276604D01*
X188950936Y-90277394D01*
X189788132Y-89931472D01*
X189873000Y-89846752D01*
X189873000Y-94873000D01*
X185346706Y-94873000D01*
X185929221Y-94291501D01*
X186276604Y-93454910D01*
X186277394Y-92549064D01*
X185931472Y-91711868D01*
X185291501Y-91070779D01*
X184454910Y-90723396D01*
X183549064Y-90722606D01*
X182711868Y-91068528D01*
X182070779Y-91708499D01*
X181723396Y-92545090D01*
X181722606Y-93450936D01*
X182068528Y-94288132D01*
X182652376Y-94873000D01*
X128127000Y-94873000D01*
X128127000Y-91615187D01*
X144073000Y-91615187D01*
X144073000Y-92384813D01*
X144181624Y-92930902D01*
X144490959Y-93393854D01*
X144953911Y-93703189D01*
X145500000Y-93811813D01*
X146046089Y-93703189D01*
X146509041Y-93393854D01*
X146818376Y-92930902D01*
X146927000Y-92384813D01*
X146927000Y-91615187D01*
X147573000Y-91615187D01*
X147573000Y-92384813D01*
X147681624Y-92930902D01*
X147990959Y-93393854D01*
X148453911Y-93703189D01*
X149000000Y-93811813D01*
X149546089Y-93703189D01*
X150009041Y-93393854D01*
X150318376Y-92930902D01*
X150427000Y-92384813D01*
X150427000Y-91615187D01*
X150318376Y-91069098D01*
X150009041Y-90606146D01*
X149546089Y-90296811D01*
X149000000Y-90188187D01*
X148453911Y-90296811D01*
X147990959Y-90606146D01*
X147681624Y-91069098D01*
X147573000Y-91615187D01*
X146927000Y-91615187D01*
X146818376Y-91069098D01*
X146509041Y-90606146D01*
X146046089Y-90296811D01*
X145500000Y-90188187D01*
X144953911Y-90296811D01*
X144490959Y-90606146D01*
X144181624Y-91069098D01*
X144073000Y-91615187D01*
X128127000Y-91615187D01*
X128127000Y-89326924D01*
X156313532Y-89326924D01*
X156323804Y-89539969D01*
X156416154Y-89732232D01*
X156576029Y-89873418D01*
X158071829Y-90737018D01*
X158259332Y-90802841D01*
X158472377Y-90792569D01*
X158664641Y-90700219D01*
X158805827Y-90540344D01*
X158847426Y-90468292D01*
X158865763Y-90748070D01*
X159105741Y-91234701D01*
X159513677Y-91592454D01*
X160027467Y-91766864D01*
X160568890Y-91731379D01*
X161055521Y-91491401D01*
X161413274Y-91083465D01*
X161595904Y-90767143D01*
X161770314Y-90253353D01*
X161734829Y-89711930D01*
X161734344Y-89710948D01*
X165428293Y-86016999D01*
X167630001Y-86016999D01*
X167753000Y-85992533D01*
X167753000Y-88801709D01*
X166833656Y-89721053D01*
X166743918Y-89503869D01*
X166497429Y-89256949D01*
X166175211Y-89123153D01*
X165826319Y-89122849D01*
X165503869Y-89256082D01*
X165256949Y-89502571D01*
X165123153Y-89824789D01*
X165122849Y-90173681D01*
X165256082Y-90496131D01*
X165502571Y-90743051D01*
X165720971Y-90833738D01*
X165233116Y-91321593D01*
X164972534Y-91233136D01*
X164431111Y-91268621D01*
X163944480Y-91508598D01*
X163586727Y-91916535D01*
X163404097Y-92232857D01*
X163229687Y-92746647D01*
X163265172Y-93288070D01*
X163505150Y-93774701D01*
X163913086Y-94132454D01*
X164426876Y-94306864D01*
X164968299Y-94271379D01*
X165454930Y-94031401D01*
X165812683Y-93623465D01*
X165995313Y-93307143D01*
X166169723Y-92793353D01*
X166134238Y-92251930D01*
X166133753Y-92250948D01*
X168857498Y-89527203D01*
X168997750Y-89317302D01*
X169023096Y-89189877D01*
X169022849Y-89473681D01*
X169156082Y-89796131D01*
X169402571Y-90043051D01*
X169724789Y-90176847D01*
X170073681Y-90177151D01*
X170396131Y-90043918D01*
X170643051Y-89797429D01*
X170735958Y-89573681D01*
X172322849Y-89573681D01*
X172456082Y-89896131D01*
X172702571Y-90143051D01*
X173024789Y-90276847D01*
X173373681Y-90277151D01*
X173696131Y-90143918D01*
X173943051Y-89897429D01*
X174076847Y-89575211D01*
X174077151Y-89226319D01*
X173943918Y-88903869D01*
X173697429Y-88656949D01*
X173375211Y-88523153D01*
X173026319Y-88522849D01*
X172703869Y-88656082D01*
X172456949Y-88902571D01*
X172323153Y-89224789D01*
X172322849Y-89573681D01*
X170735958Y-89573681D01*
X170776847Y-89475211D01*
X170777151Y-89126319D01*
X170643918Y-88803869D01*
X170397429Y-88556949D01*
X170075211Y-88423153D01*
X169726319Y-88422849D01*
X169403869Y-88556082D01*
X169156949Y-88802571D01*
X169047000Y-89067359D01*
X169047000Y-87073681D01*
X173122849Y-87073681D01*
X173256082Y-87396131D01*
X173502571Y-87643051D01*
X173824789Y-87776847D01*
X174173681Y-87777151D01*
X174496131Y-87643918D01*
X174743051Y-87397429D01*
X174763991Y-87347000D01*
X177305026Y-87347000D01*
X177552622Y-87297750D01*
X177580314Y-87279247D01*
X177556949Y-87302571D01*
X177423153Y-87624789D01*
X177422849Y-87973681D01*
X177556082Y-88296131D01*
X177802571Y-88543051D01*
X178124789Y-88676847D01*
X178473681Y-88677151D01*
X178796131Y-88543918D01*
X178988468Y-88351916D01*
X182222693Y-88351916D01*
X182492655Y-89005274D01*
X182992096Y-89505588D01*
X183644982Y-89776690D01*
X184351916Y-89777307D01*
X185005274Y-89507345D01*
X185505588Y-89007904D01*
X185776690Y-88355018D01*
X185777307Y-87648084D01*
X185507345Y-86994726D01*
X185007904Y-86494412D01*
X184355018Y-86223310D01*
X183648084Y-86222693D01*
X182994726Y-86492655D01*
X182494412Y-86992096D01*
X182223310Y-87644982D01*
X182222693Y-88351916D01*
X178988468Y-88351916D01*
X179043051Y-88297429D01*
X179176847Y-87975211D01*
X179177151Y-87626319D01*
X179043918Y-87303869D01*
X178797429Y-87056949D01*
X178660341Y-87000025D01*
X178796131Y-86943918D01*
X179043051Y-86697429D01*
X179176847Y-86375211D01*
X179177151Y-86026319D01*
X179043918Y-85703869D01*
X178797429Y-85456949D01*
X178475211Y-85323153D01*
X178126319Y-85322849D01*
X177803869Y-85456082D01*
X177682334Y-85577405D01*
X177557430Y-85602250D01*
X177347528Y-85742502D01*
X177037030Y-86053000D01*
X174247091Y-86053000D01*
X174175211Y-86023153D01*
X173826319Y-86022849D01*
X173503869Y-86156082D01*
X173256949Y-86402571D01*
X173123153Y-86724789D01*
X173122849Y-87073681D01*
X169047000Y-87073681D01*
X169047000Y-86167996D01*
X171237963Y-83977033D01*
X171373681Y-83977151D01*
X171696131Y-83843918D01*
X171943051Y-83597429D01*
X172003879Y-83450936D01*
X181722606Y-83450936D01*
X182068528Y-84288132D01*
X182708499Y-84929221D01*
X183545090Y-85276604D01*
X184450936Y-85277394D01*
X185288132Y-84931472D01*
X185929221Y-84291501D01*
X186276604Y-83454910D01*
X186277394Y-82549064D01*
X185931472Y-81711868D01*
X185291501Y-81070779D01*
X184454910Y-80723396D01*
X183549064Y-80722606D01*
X182711868Y-81068528D01*
X182070779Y-81708499D01*
X181723396Y-82545090D01*
X181722606Y-83450936D01*
X172003879Y-83450936D01*
X172076847Y-83275211D01*
X172077133Y-82947000D01*
X172500000Y-82947000D01*
X172747596Y-82897750D01*
X172957498Y-82757498D01*
X173337876Y-82377120D01*
X173373681Y-82377151D01*
X173696131Y-82243918D01*
X173943051Y-81997429D01*
X174076847Y-81675211D01*
X174077151Y-81326319D01*
X173943918Y-81003869D01*
X173697429Y-80756949D01*
X173375211Y-80623153D01*
X173051770Y-80622871D01*
X173043918Y-80603869D01*
X172797429Y-80356949D01*
X172475211Y-80223153D01*
X172126319Y-80222849D01*
X171803869Y-80356082D01*
X171556949Y-80602571D01*
X171536009Y-80653000D01*
X167493312Y-80653000D01*
X167397429Y-80556949D01*
X167075211Y-80423153D01*
X166726319Y-80422849D01*
X166403869Y-80556082D01*
X166156949Y-80802571D01*
X166023153Y-81124789D01*
X166022849Y-81473681D01*
X166156082Y-81796131D01*
X166159735Y-81799790D01*
X166156949Y-81802571D01*
X166023153Y-82124789D01*
X166022849Y-82473681D01*
X166156082Y-82796131D01*
X166402571Y-83043051D01*
X166724789Y-83176847D01*
X167073681Y-83177151D01*
X167396131Y-83043918D01*
X167493218Y-82947000D01*
X169023134Y-82947000D01*
X169023033Y-83061971D01*
X167362005Y-84722999D01*
X165160297Y-84722999D01*
X164912701Y-84772249D01*
X164702799Y-84912501D01*
X160833707Y-88781593D01*
X160573125Y-88693136D01*
X160031702Y-88728621D01*
X159780227Y-88852633D01*
X159821827Y-88780580D01*
X159887650Y-88593076D01*
X159877378Y-88380031D01*
X159785028Y-88187768D01*
X159625153Y-88046582D01*
X158129353Y-87182982D01*
X157941850Y-87117159D01*
X157728805Y-87127431D01*
X157536541Y-87219781D01*
X157395355Y-87379656D01*
X156379355Y-89139420D01*
X156313532Y-89326924D01*
X128127000Y-89326924D01*
X128127000Y-87073681D01*
X152422849Y-87073681D01*
X152556082Y-87396131D01*
X152802571Y-87643051D01*
X153124789Y-87776847D01*
X153473681Y-87777151D01*
X153796131Y-87643918D01*
X154043051Y-87397429D01*
X154176847Y-87075211D01*
X154177151Y-86726319D01*
X154043918Y-86403869D01*
X153797429Y-86156949D01*
X153475211Y-86023153D01*
X153126319Y-86022849D01*
X152803869Y-86156082D01*
X152556949Y-86402571D01*
X152423153Y-86724789D01*
X152422849Y-87073681D01*
X128127000Y-87073681D01*
X128127000Y-84273681D01*
X153622849Y-84273681D01*
X153756082Y-84596131D01*
X154002571Y-84843051D01*
X154324789Y-84976847D01*
X154673681Y-84977151D01*
X154996131Y-84843918D01*
X155243051Y-84597429D01*
X155376847Y-84275211D01*
X155377151Y-83926319D01*
X155243918Y-83603869D01*
X154997429Y-83356949D01*
X154675211Y-83223153D01*
X154326319Y-83222849D01*
X154003869Y-83356082D01*
X153756949Y-83602571D01*
X153623153Y-83924789D01*
X153622849Y-84273681D01*
X128127000Y-84273681D01*
X128127000Y-80373681D01*
X149122849Y-80373681D01*
X149256082Y-80696131D01*
X149502571Y-80943051D01*
X149824789Y-81076847D01*
X150173681Y-81077151D01*
X150496131Y-80943918D01*
X150743051Y-80697429D01*
X150752911Y-80673681D01*
X152622849Y-80673681D01*
X152756082Y-80996131D01*
X153002571Y-81243051D01*
X153324789Y-81376847D01*
X153673681Y-81377151D01*
X153996131Y-81243918D01*
X154243051Y-80997429D01*
X154376847Y-80675211D01*
X154377107Y-80376893D01*
X154673681Y-80377151D01*
X154996131Y-80243918D01*
X155243051Y-79997429D01*
X155376847Y-79675211D01*
X155377066Y-79423681D01*
X176572849Y-79423681D01*
X176706082Y-79746131D01*
X176952571Y-79993051D01*
X177274789Y-80126847D01*
X177623681Y-80127151D01*
X177946131Y-79993918D01*
X178193051Y-79747429D01*
X178326847Y-79425211D01*
X178327151Y-79076319D01*
X178193918Y-78753869D01*
X177947429Y-78506949D01*
X177625211Y-78373153D01*
X177276319Y-78372849D01*
X176953869Y-78506082D01*
X176706949Y-78752571D01*
X176573153Y-79074789D01*
X176572849Y-79423681D01*
X155377066Y-79423681D01*
X155377151Y-79326319D01*
X155243918Y-79003869D01*
X154997429Y-78756949D01*
X154675211Y-78623153D01*
X154326319Y-78622849D01*
X154003869Y-78756082D01*
X153756949Y-79002571D01*
X153623153Y-79324789D01*
X153622893Y-79623107D01*
X153326319Y-79622849D01*
X153003869Y-79756082D01*
X152756949Y-80002571D01*
X152623153Y-80324789D01*
X152622849Y-80673681D01*
X150752911Y-80673681D01*
X150876847Y-80375211D01*
X150877151Y-80026319D01*
X150743918Y-79703869D01*
X150497429Y-79456949D01*
X150175211Y-79323153D01*
X149826319Y-79322849D01*
X149503869Y-79456082D01*
X149256949Y-79702571D01*
X149123153Y-80024789D01*
X149122849Y-80373681D01*
X128127000Y-80373681D01*
X128127000Y-72421230D01*
X128872632Y-72421230D01*
X129195766Y-73203274D01*
X129793578Y-73802131D01*
X130575057Y-74126630D01*
X131421230Y-74127368D01*
X132203274Y-73804234D01*
X132802131Y-73206422D01*
X133126630Y-72424943D01*
X133127368Y-71578770D01*
X132804234Y-70796726D01*
X132206422Y-70197869D01*
X131424943Y-69873370D01*
X130578770Y-69872632D01*
X129796726Y-70195766D01*
X129197869Y-70793578D01*
X128873370Y-71575057D01*
X128872632Y-72421230D01*
X128127000Y-72421230D01*
X128127000Y-66000000D01*
X140873000Y-66000000D01*
X140873000Y-73000000D01*
X140883006Y-73049410D01*
X140911447Y-73091035D01*
X140953841Y-73118315D01*
X141000000Y-73127000D01*
X142022522Y-73127000D01*
X142002676Y-73225000D01*
X142002676Y-74215000D01*
X142039423Y-74410294D01*
X142154842Y-74589660D01*
X142330951Y-74709990D01*
X142540000Y-74752324D01*
X143380000Y-74752324D01*
X143575294Y-74715577D01*
X143754660Y-74600158D01*
X143874990Y-74424049D01*
X143917324Y-74215000D01*
X143917324Y-73225000D01*
X143898884Y-73127000D01*
X148102522Y-73127000D01*
X148082676Y-73225000D01*
X148082676Y-74215000D01*
X148119423Y-74410294D01*
X148234842Y-74589660D01*
X148273000Y-74615732D01*
X148273000Y-76704744D01*
X148223153Y-76824789D01*
X148222849Y-77173681D01*
X148356082Y-77496131D01*
X148602571Y-77743051D01*
X148924789Y-77876847D01*
X149273681Y-77877151D01*
X149596131Y-77743918D01*
X149843051Y-77497429D01*
X149976847Y-77175211D01*
X149977129Y-76851212D01*
X157403542Y-76851212D01*
X157536775Y-77173662D01*
X157783264Y-77420582D01*
X158105482Y-77554378D01*
X158454374Y-77554682D01*
X158776824Y-77421449D01*
X159023744Y-77174960D01*
X159157540Y-76852742D01*
X159157584Y-76801919D01*
X159423681Y-76802151D01*
X159746131Y-76668918D01*
X159993051Y-76422429D01*
X160126847Y-76100211D01*
X160127151Y-75751319D01*
X159993918Y-75428869D01*
X159747429Y-75181949D01*
X159425211Y-75048153D01*
X159076319Y-75047849D01*
X158753869Y-75181082D01*
X158506949Y-75427571D01*
X158373153Y-75749789D01*
X158373109Y-75800612D01*
X158107012Y-75800380D01*
X157784562Y-75933613D01*
X157537642Y-76180102D01*
X157403846Y-76502320D01*
X157403542Y-76851212D01*
X149977129Y-76851212D01*
X149977151Y-76826319D01*
X149843918Y-76503869D01*
X149807000Y-76466886D01*
X149807000Y-74617957D01*
X149834660Y-74600158D01*
X149954990Y-74424049D01*
X149997324Y-74215000D01*
X149997324Y-73225000D01*
X149978884Y-73127000D01*
X151000000Y-73127000D01*
X151049410Y-73116994D01*
X151091035Y-73088553D01*
X151118315Y-73046159D01*
X151127000Y-73000000D01*
X151127000Y-72421230D01*
X156872632Y-72421230D01*
X157195766Y-73203274D01*
X157793578Y-73802131D01*
X158575057Y-74126630D01*
X159421230Y-74127368D01*
X160203274Y-73804234D01*
X160802131Y-73206422D01*
X161126630Y-72424943D01*
X161127368Y-71578770D01*
X160804234Y-70796726D01*
X160206422Y-70197869D01*
X159424943Y-69873370D01*
X158578770Y-69872632D01*
X157796726Y-70195766D01*
X157197869Y-70793578D01*
X156873370Y-71575057D01*
X156872632Y-72421230D01*
X151127000Y-72421230D01*
X151127000Y-66000000D01*
X166873000Y-66000000D01*
X166873000Y-73000000D01*
X166883006Y-73049410D01*
X166911447Y-73091035D01*
X166953841Y-73118315D01*
X167000000Y-73127000D01*
X168022522Y-73127000D01*
X168002676Y-73225000D01*
X168002676Y-74215000D01*
X168039423Y-74410294D01*
X168133000Y-74555717D01*
X168133000Y-76382298D01*
X167868600Y-76646698D01*
X167603869Y-76756082D01*
X167356949Y-77002571D01*
X167223153Y-77324789D01*
X167222849Y-77673681D01*
X167356082Y-77996131D01*
X167602571Y-78243051D01*
X167924789Y-78376847D01*
X168273681Y-78377151D01*
X168596131Y-78243918D01*
X168843051Y-77997429D01*
X168953667Y-77731035D01*
X169442351Y-77242351D01*
X169608616Y-76993519D01*
X169667000Y-76700000D01*
X169667000Y-74656566D01*
X169754660Y-74600158D01*
X169874990Y-74424049D01*
X169917324Y-74215000D01*
X169917324Y-73225000D01*
X169898884Y-73127000D01*
X174102522Y-73127000D01*
X174082676Y-73225000D01*
X174082676Y-74215000D01*
X174119423Y-74410294D01*
X174234842Y-74589660D01*
X174410951Y-74709990D01*
X174620000Y-74752324D01*
X175460000Y-74752324D01*
X175655294Y-74715577D01*
X175834660Y-74600158D01*
X175954990Y-74424049D01*
X175997324Y-74215000D01*
X175997324Y-73225000D01*
X175978884Y-73127000D01*
X177000000Y-73127000D01*
X177049410Y-73116994D01*
X177091035Y-73088553D01*
X177118315Y-73046159D01*
X177127000Y-73000000D01*
X177127000Y-72421230D01*
X184872632Y-72421230D01*
X185195766Y-73203274D01*
X185793578Y-73802131D01*
X186575057Y-74126630D01*
X187421230Y-74127368D01*
X188203274Y-73804234D01*
X188802131Y-73206422D01*
X189126630Y-72424943D01*
X189127368Y-71578770D01*
X188804234Y-70796726D01*
X188206422Y-70197869D01*
X187424943Y-69873370D01*
X186578770Y-69872632D01*
X185796726Y-70195766D01*
X185197869Y-70793578D01*
X184873370Y-71575057D01*
X184872632Y-72421230D01*
X177127000Y-72421230D01*
X177127000Y-66000000D01*
X177116994Y-65950590D01*
X177088553Y-65908965D01*
X177046159Y-65881685D01*
X177000000Y-65873000D01*
X167000000Y-65873000D01*
X166950590Y-65883006D01*
X166908965Y-65911447D01*
X166881685Y-65953841D01*
X166873000Y-66000000D01*
X151127000Y-66000000D01*
X151116994Y-65950590D01*
X151088553Y-65908965D01*
X151046159Y-65881685D01*
X151000000Y-65873000D01*
X141000000Y-65873000D01*
X140950590Y-65883006D01*
X140908965Y-65911447D01*
X140881685Y-65953841D01*
X140873000Y-66000000D01*
X128127000Y-66000000D01*
X128127000Y-63273681D01*
X129822849Y-63273681D01*
X129956082Y-63596131D01*
X130202571Y-63843051D01*
X130524789Y-63976847D01*
X130873681Y-63977151D01*
X131196131Y-63843918D01*
X131443051Y-63597429D01*
X131576847Y-63275211D01*
X131576867Y-63251878D01*
X131596131Y-63243918D01*
X131843051Y-62997429D01*
X131976847Y-62675211D01*
X131976954Y-62551842D01*
X131996131Y-62543918D01*
X132243051Y-62297429D01*
X132317705Y-62117642D01*
X132496131Y-62043918D01*
X132743051Y-61797429D01*
X132876847Y-61475211D01*
X132877119Y-61163246D01*
X132943051Y-61097429D01*
X133076847Y-60775211D01*
X133076867Y-60751878D01*
X133096131Y-60743918D01*
X133343051Y-60497429D01*
X133476847Y-60175211D01*
X133476954Y-60051842D01*
X133496131Y-60043918D01*
X133743051Y-59797429D01*
X133876847Y-59475211D01*
X133876935Y-59373681D01*
X184222849Y-59373681D01*
X184356082Y-59696131D01*
X184602571Y-59943051D01*
X184622868Y-59951479D01*
X184622849Y-59973681D01*
X184756082Y-60296131D01*
X185002571Y-60543051D01*
X185022868Y-60551479D01*
X185022849Y-60573681D01*
X185095717Y-60750035D01*
X185023153Y-60924789D01*
X185022849Y-61273681D01*
X185156082Y-61596131D01*
X185402571Y-61843051D01*
X185724789Y-61976847D01*
X185748122Y-61976867D01*
X185756082Y-61996131D01*
X186002571Y-62243051D01*
X186022955Y-62251515D01*
X186022849Y-62373681D01*
X186156082Y-62696131D01*
X186402571Y-62943051D01*
X186522919Y-62993024D01*
X186522849Y-63073681D01*
X186656082Y-63396131D01*
X186902571Y-63643051D01*
X187224789Y-63776847D01*
X187573681Y-63777151D01*
X187896131Y-63643918D01*
X188143051Y-63397429D01*
X188276847Y-63075211D01*
X188277151Y-62726319D01*
X188143918Y-62403869D01*
X187897429Y-62156949D01*
X187777081Y-62106976D01*
X187777151Y-62026319D01*
X187643918Y-61703869D01*
X187397429Y-61456949D01*
X187377045Y-61448485D01*
X187377151Y-61326319D01*
X187243918Y-61003869D01*
X186997429Y-60756949D01*
X186744921Y-60652099D01*
X186776847Y-60575211D01*
X186777151Y-60226319D01*
X186643918Y-59903869D01*
X186397429Y-59656949D01*
X186377132Y-59648521D01*
X186377151Y-59626319D01*
X186243918Y-59303869D01*
X185997429Y-59056949D01*
X185977132Y-59048521D01*
X185977151Y-59026319D01*
X185843918Y-58703869D01*
X185597429Y-58456949D01*
X185275211Y-58323153D01*
X184926319Y-58322849D01*
X184603869Y-58456082D01*
X184356949Y-58702571D01*
X184223153Y-59024789D01*
X184222849Y-59373681D01*
X133876935Y-59373681D01*
X133877151Y-59126319D01*
X133743918Y-58803869D01*
X133497429Y-58556949D01*
X133175211Y-58423153D01*
X132826319Y-58422849D01*
X132503869Y-58556082D01*
X132256949Y-58802571D01*
X132123153Y-59124789D01*
X132123046Y-59248158D01*
X132103869Y-59256082D01*
X131856949Y-59502571D01*
X131723153Y-59824789D01*
X131723133Y-59848122D01*
X131703869Y-59856082D01*
X131456949Y-60102571D01*
X131323153Y-60424789D01*
X131322881Y-60736754D01*
X131256949Y-60802571D01*
X131182295Y-60982358D01*
X131003869Y-61056082D01*
X130756949Y-61302571D01*
X130623153Y-61624789D01*
X130623046Y-61748158D01*
X130603869Y-61756082D01*
X130356949Y-62002571D01*
X130223153Y-62324789D01*
X130223133Y-62348122D01*
X130203869Y-62356082D01*
X129956949Y-62602571D01*
X129823153Y-62924789D01*
X129822849Y-63273681D01*
X128127000Y-63273681D01*
X128127000Y-53615187D01*
X154073000Y-53615187D01*
X154073000Y-54384813D01*
X154181624Y-54930902D01*
X154490959Y-55393854D01*
X154953911Y-55703189D01*
X155500000Y-55811813D01*
X156046089Y-55703189D01*
X156509041Y-55393854D01*
X156818376Y-54930902D01*
X156927000Y-54384813D01*
X156927000Y-53615187D01*
X161073000Y-53615187D01*
X161073000Y-54384813D01*
X161181624Y-54930902D01*
X161490959Y-55393854D01*
X161953911Y-55703189D01*
X162500000Y-55811813D01*
X163046089Y-55703189D01*
X163509041Y-55393854D01*
X163818376Y-54930902D01*
X163927000Y-54384813D01*
X163927000Y-53615187D01*
X163818376Y-53069098D01*
X163509041Y-52606146D01*
X163046089Y-52296811D01*
X162500000Y-52188187D01*
X161953911Y-52296811D01*
X161490959Y-52606146D01*
X161181624Y-53069098D01*
X161073000Y-53615187D01*
X156927000Y-53615187D01*
X156818376Y-53069098D01*
X156509041Y-52606146D01*
X156046089Y-52296811D01*
X155500000Y-52188187D01*
X154953911Y-52296811D01*
X154490959Y-52606146D01*
X154181624Y-53069098D01*
X154073000Y-53615187D01*
X128127000Y-53615187D01*
X128127000Y-51127000D01*
X189873000Y-51127000D01*
X189873000Y-86152420D01*
M02*
